<svg width="1101" height="207" viewBox="0 0 1101 207" fill="none" xmlns="http://www.w3.org/2000/svg">
<path d="M111.088 29.5981C113.088 28.4434 115.588 29.8868 115.588 32.1962L115.588 52.9808C115.588 55.2902 113.088 56.7335 111.088 55.5788L93.0885 45.1865C91.0885 44.0318 91.0885 41.1451 93.0885 39.9904L111.088 29.5981Z" fill="#EFA585"/>
<path d="M1080.02 86.9996C1080.7 84.7918 1083.51 84.1452 1085.08 85.8357L1099.24 101.05C1100.82 102.741 1099.97 105.501 1097.72 106.018L1077.46 110.674C1075.21 111.191 1073.24 109.078 1073.92 106.87L1080.02 86.9996Z" fill="#E8D25B"/>
<path fill-rule="evenodd" clip-rule="evenodd" d="M0 121C0 125.243 1.68571 129.313 4.68628 132.314C7.68686 135.314 11.7565 137 16 137V137.2C19.3948 137.2 22.6505 138.549 25.051 140.949C27.4514 143.35 28.8 146.605 28.8 150H29C29 154.243 30.6857 158.313 33.6863 161.314C36.6869 164.314 40.7565 166 45 166V162.8C41.6052 162.8 38.3495 161.451 35.949 159.051C33.5486 156.65 32.2 153.395 32.2 150H32C32 145.757 30.3143 141.687 27.3137 138.686C24.3131 135.686 20.2435 134 16 134V133.8C12.6052 133.8 9.34949 132.451 6.94904 130.051C4.54855 127.65 3.2 124.395 3.2 121H0Z" fill="#DDDDDD"/>
<path fill-rule="evenodd" clip-rule="evenodd" d="M860 39.5681C863.731 41.5892 868.113 42.0453 872.18 40.836C876.248 39.6268 879.668 36.8512 881.689 33.12L878.875 31.5959C877.259 34.5809 874.522 36.8013 871.268 37.7687C868.014 38.7361 864.509 38.3713 861.524 36.7544L860 39.5681ZM899.312 27.8809C903.043 29.9019 907.424 30.358 911.492 29.1488C915.559 27.9395 918.98 25.164 921.001 21.4327L918.187 19.9086C916.57 22.8936 913.834 25.114 910.58 26.0815C907.326 27.0489 903.821 26.684 900.836 25.0671L900.741 25.243C897.009 23.2219 892.628 22.7658 888.56 23.9751C884.493 25.1843 881.072 27.9599 879.051 31.6911L881.865 33.2152C883.482 30.2302 886.218 28.0098 889.472 27.0424C892.726 26.075 896.231 26.4398 899.216 28.0567L899.312 27.8809Z" fill="#8ED1B1"/>
<rect x="948" y="195.265" width="8" height="29" rx="3" transform="rotate(-65.2457 948 195.265)" fill="#DDDDDD"/>
<rect x="218.957" y="22.168" width="8" height="29" rx="3" transform="rotate(-150.407 218.957 22.168)" fill="#E8D25B"/>
<circle cx="92" cy="188" r="10" fill="#8ED1B1"/>
</svg>
