<svg width="150" height="90" viewBox="0 0 150 90" fill="none" xmlns="http://www.w3.org/2000/svg">
<path d="M107.96 67.921C105.904 67.921 103.99 68.5434 102.397 69.6082L91.5972 58.8069C91.922 58.3711 92.2263 57.9161 92.502 57.4383C96.3164 50.8316 94.0446 42.3534 87.4379 38.5388C86.9601 38.2627 86.4692 38.0212 85.97 37.8059L89.9226 23.0529C90.1413 23.0674 90.3606 23.0749 90.5804 23.0749C92.2824 23.0749 94.0063 22.6422 95.5831 21.7316C100.377 18.9637 102.026 12.8115 99.2578 8.01746C96.4899 3.22345 90.338 1.57542 85.5437 4.34289C80.7495 7.11086 79.1011 13.263 81.8689 18.0571C82.8971 19.8376 84.393 21.182 86.1118 22.0296L82.1601 36.7782C80.4342 36.5724 78.6682 36.6931 76.9388 37.1566C73.369 38.113 70.3857 40.4022 68.5378 43.6028C66.9857 46.2912 66.4415 49.2895 66.787 52.1575L52.0387 56.1092C51.1698 54.3444 49.7998 52.875 48.058 51.8695C45.7356 50.5288 43.0304 50.1723 40.4399 50.8664C37.8497 51.5605 35.6846 53.2217 34.344 55.5439C31.5762 60.3381 33.2246 66.4901 38.0186 69.2581C39.5957 70.1685 41.319 70.6013 43.0213 70.6013C46.4933 70.6013 49.8754 68.8004 51.7326 65.5835C52.7383 63.8412 53.1902 61.8835 53.0602 59.9207L67.8083 55.9691C68.9432 58.6256 70.9134 60.9505 73.6021 62.5026C75.734 63.7334 78.0996 64.3623 80.4972 64.3623C81.6988 64.3623 82.909 64.2041 84.1008 63.8848C85.8301 63.4213 87.4198 62.6427 88.8115 61.6018L99.6066 72.3984C98.542 73.9917 97.9199 75.9046 97.9199 77.9604C97.9199 83.4962 102.424 87.9998 107.959 87.9998C113.495 87.9998 117.999 83.4962 117.999 77.9604C117.999 72.4248 113.495 67.921 107.96 67.921ZM85.2864 16.0843C83.6064 13.1747 84.607 9.44038 87.5169 7.76031C90.4268 6.08023 94.161 7.08147 95.8409 9.99088C97.5208 12.9006 96.5202 16.635 93.6103 18.3149C90.7004 19.9948 86.9661 18.9937 85.2864 16.0843ZM48.316 63.6106C46.6361 66.5202 42.9019 67.5209 39.992 65.8412C37.0821 64.1611 36.0817 60.4269 37.7616 57.5172C38.5754 56.1075 39.8896 55.0991 41.4616 54.678C43.0336 54.2568 44.6759 54.4728 46.0856 55.2867C47.4914 56.0984 48.4978 57.4078 48.9211 58.9748C48.9221 58.9789 48.9228 58.9829 48.9236 58.9869C48.9248 58.9914 48.9266 58.9957 48.9278 59.0003C49.3445 60.5682 49.1275 62.2051 48.316 63.6106ZM89.0846 55.4659C87.7641 57.7532 85.6312 59.3898 83.0797 60.0736C80.5277 60.7574 77.8628 60.4065 75.5751 59.0857C73.2873 57.765 71.651 55.6322 70.9672 53.0807C70.2836 50.5289 70.6345 47.864 71.9552 45.5762C73.276 43.2883 75.4086 41.6519 77.9603 40.9685C78.8121 40.7402 79.6769 40.6271 80.5362 40.6271C81.3858 40.6271 82.2303 40.7384 83.0515 40.9572C83.0616 40.96 83.0707 40.9641 83.0808 40.9666C83.0872 40.9681 83.0935 40.9688 83.0998 40.9704C83.9174 41.1927 84.7118 41.5215 85.4648 41.9566C87.7527 43.2772 89.3889 45.41 90.0726 47.9617C90.7562 50.5133 90.4056 53.1782 89.0846 55.4659ZM107.96 84.054C104.6 84.054 101.866 81.3206 101.866 77.9602C101.866 74.6003 104.6 71.8665 107.96 71.8665C111.32 71.8665 114.054 74.5999 114.054 77.9602C114.053 81.3206 111.32 84.054 107.96 84.054Z" fill="#C8AB13"/>
<path d="M80.5311 43.5887C78.0571 43.5887 75.7532 44.917 74.5182 47.0556C73.9733 47.999 74.2966 49.2056 75.2402 49.7505C75.551 49.9298 75.8901 50.0153 76.2247 50.0153C76.9065 50.0153 77.5696 49.6613 77.9351 49.0285C78.4672 48.1069 79.4618 47.5343 80.5306 47.5343C81.6202 47.5343 82.5035 46.6508 82.5035 45.5614C82.504 44.4719 81.6207 43.5887 80.5311 43.5887Z" fill="#C8AB13"/>
</svg>
