<svg width="150" height="90" viewBox="0 0 150 90" fill="none" xmlns="http://www.w3.org/2000/svg">
<g clip-path="url(#clip0)">
<path d="M119.998 48.0151C119.997 47.9794 119.995 47.9439 119.992 47.9081C119.99 47.8806 119.988 47.8534 119.984 47.8262C119.98 47.7931 119.975 47.7602 119.969 47.7274C119.964 47.6982 119.959 47.669 119.952 47.6405C119.945 47.6108 119.937 47.5813 119.929 47.5518C119.921 47.521 119.912 47.4902 119.902 47.46C119.893 47.4335 119.883 47.4071 119.873 47.3811C119.86 47.3487 119.847 47.3169 119.833 47.2856C119.822 47.2621 119.811 47.239 119.799 47.2158C119.783 47.1826 119.765 47.1499 119.746 47.1178C119.735 47.0972 119.722 47.077 119.709 47.0568C119.688 47.0234 119.666 46.9907 119.643 46.9585C119.635 46.9485 119.629 46.9378 119.622 46.9279L109.888 33.992C109.533 33.5198 108.976 33.2424 108.386 33.2424H101.315L76.8801 21.0247V14.6983H91.3047C92.0934 14.6983 92.7983 14.206 93.0699 13.4654C93.3413 12.7248 93.1218 11.8934 92.5199 11.3835L88.3711 7.8694L92.5197 4.35517C93.1216 3.84523 93.3411 3.01396 93.0697 2.27322C92.7983 1.53247 92.0934 1.04028 91.3045 1.04028H74.9997C73.9616 1.04028 73.1196 1.8821 73.1196 2.92044V12.818V21.0244L48.6845 33.2421H41.6139C41.0231 33.2421 40.4666 33.5198 40.1117 33.9916L30.3779 46.9277C30.3704 46.9378 30.3646 46.9483 30.3572 46.9583C30.334 46.9903 30.3118 47.023 30.2906 47.0566C30.2777 47.0766 30.2654 47.097 30.2535 47.1176C30.2348 47.1497 30.2174 47.1824 30.2006 47.2157C30.189 47.2389 30.1777 47.2619 30.1672 47.2855C30.1531 47.3169 30.1399 47.3486 30.1274 47.3809C30.1172 47.4073 30.1074 47.4333 30.0984 47.4598C30.0882 47.4901 30.0793 47.5208 30.0707 47.5516C30.0624 47.5811 30.0547 47.6106 30.048 47.6404C30.0415 47.6692 30.036 47.698 30.0308 47.7272C30.025 47.7601 30.0197 47.7929 30.0156 47.826C30.0123 47.8532 30.0097 47.8805 30.0076 47.9079C30.0047 47.9436 30.003 47.9791 30.0021 48.0149C30.0019 48.0294 30 48.0434 30 48.0577V87.0798C30 88.1181 30.842 88.9599 31.8802 88.9599H49.128H100.872H118.12C119.158 88.9599 120 88.1181 120 87.0798V48.0577C120 48.0434 119.998 48.0294 119.998 48.0151ZM47.2479 85.1996H33.7603V49.9378H47.2479V85.1996ZM47.248 46.1775H35.6482L42.5524 37.0024H47.248V46.1775ZM76.8801 4.80043H86.1763L84.2471 6.4345C83.8254 6.79168 83.5823 7.31639 83.5823 7.86905C83.5823 8.42188 83.8254 8.94659 84.2471 9.30378L86.1761 10.9378H76.8801V4.80043ZM73.3078 85.1996H68.0681V69.8954H73.3078V85.1996ZM81.9317 85.1996H76.6922V69.8954H81.9317V85.1996ZM98.9916 85.1996H85.316V68.2033C85.316 67.2687 84.5586 66.5112 83.6239 66.5112H66.3761C65.4414 66.5112 64.684 67.2687 64.684 68.2033V85.1996H51.0084V36.2843L75.0001 24.2883L98.9918 36.2843V85.1996H98.9916ZM102.752 37.0024H107.448L114.352 46.1775H102.752V37.0024ZM116.24 85.1996H102.752V49.9378H116.24V85.1996Z" fill="#B29811"/>
<path d="M40.504 71.936C39.4658 71.936 38.6238 72.7778 38.6238 73.8162V77.9451C38.6238 78.9834 39.4658 79.8252 40.504 79.8252C41.5422 79.8252 42.3842 78.9834 42.3842 77.9451V73.8162C42.3842 72.7778 41.5425 71.936 40.504 71.936Z" fill="#B29811"/>
<path d="M109.496 71.936C108.458 71.936 107.616 72.7778 107.616 73.8162V77.9451C107.616 78.9834 108.458 79.8252 109.496 79.8252C110.534 79.8252 111.376 78.9834 111.376 77.9451V73.8162C111.376 72.7778 110.534 71.936 109.496 71.936Z" fill="#B29811"/>
<path d="M40.504 56.9924C39.4658 56.9924 38.6238 57.8343 38.6238 58.8726V63.0015C38.6238 64.0399 39.4658 64.8817 40.504 64.8817C41.5422 64.8817 42.3842 64.0399 42.3842 63.0015V58.8726C42.3842 57.8341 41.5425 56.9924 40.504 56.9924Z" fill="#B29811"/>
<path d="M109.496 56.9926C108.458 56.9926 107.616 57.8344 107.616 58.8728V63.0017C107.616 64.0401 108.458 64.8819 109.496 64.8819C110.534 64.8819 111.376 64.0401 111.376 63.0017V58.8728C111.376 57.8343 110.534 56.9926 109.496 56.9926Z" fill="#B29811"/>
<path d="M57.752 66.3231C56.7137 66.3231 55.8719 67.1649 55.8719 68.2033V72.3324C55.8719 73.3707 56.7137 74.2125 57.752 74.2125C58.7904 74.2125 59.6322 73.3707 59.6322 72.3324V68.2033C59.6322 67.1648 58.7904 66.3231 57.752 66.3231Z" fill="#B29811"/>
<path d="M92.248 66.3231C91.2098 66.3231 90.3678 67.1649 90.3678 68.2033V72.3324C90.3678 73.3707 91.2098 74.2125 92.248 74.2125C93.2861 74.2125 94.1281 73.3707 94.1281 72.3324V68.2033C94.1281 67.1648 93.2861 66.3231 92.248 66.3231Z" fill="#B29811"/>
<path d="M57.752 51.3794C56.7137 51.3794 55.8719 52.2212 55.8719 53.2595V57.3886C55.8719 58.427 56.7137 59.2688 57.752 59.2688C58.7904 59.2688 59.6322 58.427 59.6322 57.3886V53.2595C59.6322 52.2214 58.7904 51.3794 57.752 51.3794Z" fill="#B29811"/>
<path d="M92.248 51.3794C91.2098 51.3794 90.3678 52.2212 90.3678 53.2595V57.3886C90.3678 58.427 91.2098 59.2688 92.248 59.2688C93.2861 59.2688 94.1281 58.427 94.1281 57.3886V53.2595C94.1281 52.221 93.2861 51.3794 92.248 51.3794Z" fill="#B29811"/>
<path d="M74.9999 51.3794C73.9618 51.3794 73.1198 52.2212 73.1198 53.2595V57.3886C73.1198 58.427 73.9618 59.2688 74.9999 59.2688C76.0383 59.2688 76.8801 58.427 76.8801 57.3886V53.2595C76.8801 52.2214 76.0383 51.3794 74.9999 51.3794Z" fill="#B29811"/>
<path d="M74.9999 32.5898C71.6743 32.5898 68.9687 35.2956 68.9687 38.6212C68.9687 41.9468 71.6745 44.6526 74.9999 44.6526C78.3257 44.6526 81.0314 41.9468 81.0314 38.6212C81.0314 35.2956 78.3257 32.5898 74.9999 32.5898ZM74.9999 41.08C73.6441 41.08 72.5411 39.977 72.5411 38.621C72.5411 37.2652 73.6441 36.162 74.9999 36.162C76.3559 36.162 77.459 37.265 77.459 38.621C77.4591 39.9768 76.3559 41.08 74.9999 41.08Z" fill="#B29811"/>
</g>
<defs>
<clipPath id="clip0">
<rect width="90" height="90" fill="white" transform="translate(30)"/>
</clipPath>
</defs>
</svg>
