<svg width="150" height="90" viewBox="0 0 150 90" fill="none" xmlns="http://www.w3.org/2000/svg">
<g clip-path="url(#clip0)">
<path d="M89.3477 67.3687C89.2947 67.3631 81.9942 67.5514 80.8809 59.7548C83.5553 57.8742 85.6956 54.8418 86.9055 51.1244C86.9538 51.4849 86.9931 51.8474 87.0153 52.2138C87.0533 52.8425 87.4766 53.3821 88.078 53.5686C88.2259 53.6142 88.3768 53.6365 88.5261 53.6365C88.9847 53.6365 89.429 53.4274 89.7208 53.0526C92.294 49.7476 93.6317 45.4425 93.4876 40.9306C93.346 36.5036 91.7921 32.3505 89.1115 29.2361C86.3797 26.0622 82.7785 24.2967 78.9672 24.262C78.7726 24.2535 78.2106 24.2742 78.1005 24.2819C76.1151 23.3665 74.0146 22.9387 71.8531 23.0071C67.4432 23.148 63.3835 25.3509 60.4212 29.2096C57.5282 32.9788 56.0258 37.8993 56.1908 43.0647C56.2188 43.9397 56.2879 44.7454 56.3999 45.5152C56.7015 47.7165 57.3077 49.8247 58.202 51.7813C58.4346 52.2904 58.9294 52.6296 59.4882 52.6631C60.0488 52.6962 60.5788 52.419 60.8707 51.9413C61.0556 51.6388 61.3023 51.2455 61.5772 50.8781C61.6774 50.7428 61.7802 50.6115 61.8841 50.4822C62.6949 53.255 64.0319 55.747 65.7694 57.6762C66.497 58.484 67.2855 59.1821 68.119 59.7649C66.855 67.6275 59.7058 67.3635 59.6528 67.3691C54.3075 67.5522 50.0148 71.9547 50.0148 77.344V88.4863C50.0148 89.3225 50.6925 90.0003 51.5287 90.0003H97.4716C98.3078 90.0003 98.9855 89.3225 98.9855 88.4863V77.344C98.9856 71.9544 94.6928 67.5518 89.3477 67.3687ZM61.8659 46.2602C61.8182 46.2955 60.4883 47.4713 60.017 48.0005C59.7416 47.0608 59.5345 46.0893 59.3977 45.0916C59.3004 44.4227 59.2414 43.7281 59.2172 42.9679C59.0744 38.5001 60.355 34.2687 62.8231 31.0532C65.2226 27.9275 68.4637 26.1447 71.9498 26.0332C72.0665 26.0294 74.5453 25.881 77.1409 27.1791C77.3641 27.2907 77.6262 27.3443 77.8732 27.3361C77.9015 27.3352 78.8934 27.2894 78.916 27.2896C81.851 27.3089 84.6566 28.7018 86.8165 31.2111C89.0473 33.8031 90.3416 37.2892 90.4611 41.0271C90.5379 43.4261 90.1247 45.7472 89.2732 47.8236C89.0252 47.0247 88.7204 46.244 88.3592 45.4849C86.5809 41.7012 83.5894 38.7711 79.936 37.2347C79.5552 37.0745 79.1254 37.0769 78.7468 37.2413C78.3679 37.4055 78.0725 37.7176 77.9294 38.1048C77.6724 38.7995 77.3603 39.4765 77.0024 40.1166C75.9493 42.0001 73.8335 43.1184 71.4866 43.0383C71.1625 43.0273 70.8347 43.0268 70.5115 43.0371C68.9239 43.088 67.3758 43.3903 65.9041 43.9385C64.4462 44.4889 63.0909 45.2706 61.8659 46.2602ZM64.418 48.1259C65.2142 47.568 66.068 47.113 66.9674 46.7733C68.1245 46.3424 69.3492 46.1036 70.6083 46.0633C70.8644 46.0553 71.6124 46.0702 71.7273 46.0702C75.0777 46.0699 78.0895 44.3766 79.6453 41.594C79.8097 41.2999 79.9661 40.9995 80.1139 40.6941C82.0705 41.8145 83.7311 43.4701 84.9446 45.5074C84.9225 45.592 84.9061 45.6792 84.8989 45.7695C84.6041 49.4146 83.3431 52.7642 81.3479 55.2015C79.4363 57.5369 77.0014 58.8229 74.4921 58.8229C69.8258 58.8232 65.69 54.3752 64.418 48.1259ZM70.9628 61.2389C72.1048 61.642 73.2912 61.8509 74.4921 61.8509C75.7172 61.8509 76.9059 61.6367 78.0372 61.2357C78.7061 64.6072 80.8698 67.4466 83.807 69.0311C82.7739 73.2602 78.948 76.3325 74.5006 76.3325C70.0531 76.3325 66.2273 73.2602 65.194 69.031C68.13 67.4469 70.2932 64.6089 70.9628 61.2389ZM53.0427 86.972V77.3436C53.0427 73.5081 56.163 70.3877 59.9984 70.3877C60.0527 70.3877 61.4681 70.3522 62.3414 70.101C63.8235 75.4864 68.7713 79.3606 74.5003 79.3606C80.2292 79.3606 85.177 75.4864 86.6591 70.101C87.5103 70.3333 88.9477 70.3877 89.002 70.3877C92.8374 70.3877 95.9577 73.5081 95.9577 77.3436V86.972H53.0427Z" fill="#C8AB13"/>
</g>
<g clip-path="url(#clip1)">
<path d="M49.0003 66.5059C48.947 66.5001 41.2346 66.7277 40.0878 58.4629C41.362 57.5738 42.5364 56.4197 43.5709 55.0192C45.5835 52.2947 46.8804 48.8769 47.3423 45.18C47.501 45.0365 47.6324 44.8578 47.7209 44.6473C48.5567 42.6563 48.9805 40.5303 48.9805 38.3282C48.9805 29.8763 42.6049 23 34.7678 23C32.7181 23 30.7296 23.4721 28.8515 24.4045C28.135 24.4592 27.433 24.5852 26.7597 24.7797C23.5409 25.7097 20.9217 28.0962 19.3842 31.4998C17.8916 34.8046 17.5974 38.6949 18.5561 42.4543C18.7587 43.2485 19.0162 44.029 19.3216 44.7746C19.4043 44.9763 19.5276 45.1483 19.6756 45.2899C20.4239 51.0602 23.1694 55.8411 26.9131 58.4514C25.7628 66.7302 18.0531 66.5004 18 66.5062C12.4539 66.6943 7.99904 71.2617 7.99904 76.8528V88.4916C7.99904 89.3248 8.6744 90.0001 9.50759 90.0001H22.7546H44.2453H57.4925C58.3256 90.0001 59.0012 89.3248 59.0012 88.4916V76.8528C59.0011 71.2615 54.5466 66.6939 49.0003 66.5059ZM27.5973 27.6784C28.1478 27.5192 28.7293 27.4249 29.3255 27.3981C29.5467 27.3881 29.763 27.3296 29.9592 27.2265C31.4865 26.4241 33.1044 26.0172 34.7679 26.0172C40.9411 26.0172 45.9634 31.5399 45.9634 38.3282C45.9634 38.532 45.9577 38.7347 45.9488 38.9366C44.7514 37.7206 43.0878 36.9649 41.2507 36.9649H30.9689C30.3571 36.9649 29.7765 36.7728 29.2896 36.4093C28.8739 36.099 28.5525 35.682 28.3605 35.2033C28.0632 34.4629 27.3301 33.9998 26.5321 34.0499C25.7313 34.1009 25.0573 34.6571 24.855 35.4343C24.2592 37.7238 23.0712 39.8327 21.4412 41.5429C19.9245 35.301 22.6617 29.1043 27.5973 27.6784ZM26.2848 53.7703C24.3218 51.3721 23.0362 48.1338 22.6287 44.5884C24.5323 42.8918 26.0372 40.7805 27.017 38.4387C27.1656 38.5758 27.3217 38.7055 27.4848 38.8273C28.4971 39.5828 29.7018 39.9823 30.969 39.9823H41.2508C42.7056 39.9823 43.9595 40.8548 44.519 42.1036C44.5189 42.1144 44.5173 42.1246 44.5173 42.1353C44.5173 50.6514 39.5761 57.5797 33.5024 57.5797C30.859 57.5799 28.2956 56.2269 26.2848 53.7703ZM29.7511 59.9328C30.9471 60.3656 32.205 60.5971 33.5024 60.5971C34.7894 60.5971 36.0468 60.373 37.2506 59.9408C37.8029 62.8185 39.4029 65.3267 41.6379 67.0534L33.7163 78.3345C33.6646 78.4082 33.5928 78.4455 33.5027 78.4455C33.4128 78.4455 33.341 78.4081 33.2894 78.3347L25.3659 67.0509C27.601 65.3223 29.2005 62.8123 29.7511 59.9328ZM55.9839 86.9828H44.2453H22.7546H11.0161V76.8526C11.0161 72.8061 14.3082 69.5141 18.3546 69.5141C18.4096 69.5141 20.8371 69.4551 22.7553 68.5834L30.82 80.0684C31.4329 80.9415 32.4358 81.4627 33.5026 81.4627C33.5026 81.4627 33.5026 81.4627 33.5027 81.4627C34.5694 81.4627 35.5724 80.9415 36.1854 80.0684L44.2487 68.5853C46.4362 69.5142 48.5906 69.5142 48.6455 69.5142C52.692 69.5142 55.9839 72.8063 55.9839 76.8527V86.9828Z" fill="#DEBE15"/>
</g>
<g clip-path="url(#clip2)">
<path d="M131 66.5059C130.947 66.5001 123.235 66.7277 122.088 58.4629C123.362 57.5738 124.536 56.4197 125.571 55.0192C127.584 52.2947 128.88 48.8769 129.342 45.18C129.501 45.0365 129.632 44.8578 129.721 44.6473C130.557 42.6563 130.981 40.5303 130.981 38.3282C130.981 29.8763 124.605 23 116.768 23C114.718 23 112.73 23.4721 110.851 24.4045C110.135 24.4592 109.433 24.5852 108.76 24.7797C105.541 25.7097 102.922 28.0962 101.384 31.4998C99.8916 34.8046 99.5974 38.6949 100.556 42.4543C100.759 43.2485 101.016 44.029 101.322 44.7746C101.404 44.9763 101.528 45.1483 101.676 45.2899C102.424 51.0602 105.169 55.8411 108.913 58.4514C107.763 66.7302 100.053 66.5004 100 66.5062C94.4539 66.6943 89.999 71.2617 89.999 76.8528V88.4916C89.999 89.3248 90.6744 90.0001 91.5076 90.0001H104.755H126.245H139.493C140.326 90.0001 141.001 89.3248 141.001 88.4916V76.8528C141.001 71.2615 136.547 66.6939 131 66.5059ZM109.597 27.6784C110.148 27.5192 110.729 27.4249 111.325 27.3981C111.547 27.3881 111.763 27.3296 111.959 27.2265C113.486 26.4241 115.104 26.0172 116.768 26.0172C122.941 26.0172 127.963 31.5399 127.963 38.3282C127.963 38.532 127.958 38.7347 127.949 38.9366C126.751 37.7206 125.088 36.9649 123.251 36.9649H112.969C112.357 36.9649 111.777 36.7728 111.29 36.4093C110.874 36.099 110.552 35.682 110.36 35.2033C110.063 34.4629 109.33 33.9998 108.532 34.0499C107.731 34.1009 107.057 34.6571 106.855 35.4343C106.259 37.7238 105.071 39.8327 103.441 41.5429C101.925 35.301 104.662 29.1043 109.597 27.6784ZM108.285 53.7703C106.322 51.3721 105.036 48.1338 104.629 44.5884C106.532 42.8918 108.037 40.7805 109.017 38.4387C109.166 38.5758 109.322 38.7055 109.485 38.8273C110.497 39.5828 111.702 39.9823 112.969 39.9823H123.251C124.706 39.9823 125.959 40.8548 126.519 42.1036C126.519 42.1144 126.517 42.1246 126.517 42.1353C126.517 50.6514 121.576 57.5797 115.502 57.5797C112.859 57.5799 110.296 56.2269 108.285 53.7703ZM111.751 59.9328C112.947 60.3656 114.205 60.5971 115.502 60.5971C116.789 60.5971 118.047 60.373 119.251 59.9408C119.803 62.8185 121.403 65.3267 123.638 67.0534L115.716 78.3345C115.665 78.4082 115.593 78.4455 115.503 78.4455C115.413 78.4455 115.341 78.4081 115.289 78.3347L107.366 67.0509C109.601 65.3223 111.2 62.8123 111.751 59.9328ZM137.984 86.9828H126.245H104.755H93.0161V76.8526C93.0161 72.8061 96.3082 69.5141 100.355 69.5141C100.41 69.5141 102.837 69.4551 104.755 68.5834L112.82 80.0684C113.433 80.9415 114.436 81.4627 115.503 81.4627C115.503 81.4627 115.503 81.4627 115.503 81.4627C116.569 81.4627 117.572 80.9415 118.185 80.0684L126.249 68.5853C128.436 69.5142 130.591 69.5142 130.646 69.5142C134.692 69.5142 137.984 72.8063 137.984 76.8527V86.9828Z" fill="#DEBE15"/>
</g>
<defs>
<clipPath id="clip0">
<rect width="67" height="67" fill="white" transform="translate(41 23)"/>
</clipPath>
<clipPath id="clip1">
<rect width="67" height="67" fill="white" transform="translate(0 23)"/>
</clipPath>
<clipPath id="clip2">
<rect width="67" height="67" fill="white" transform="translate(82 23)"/>
</clipPath>
</defs>
</svg>
