<svg width="315" height="217" viewBox="0 0 315 217" fill="none" xmlns="http://www.w3.org/2000/svg">
<path fill-rule="evenodd" clip-rule="evenodd" d="M314.138 204.398V128.969C314.138 125.339 311.196 122.395 307.566 122.395H307.566V108.283C307.566 105.724 306.549 103.269 304.739 101.46C303.147 99.868 301.056 98.8888 298.833 98.6775V98.6329H283.892V98.6775C281.669 98.8888 279.578 99.868 277.986 101.46C276.176 103.269 275.159 105.724 275.159 108.283V122.395H275.159C271.529 122.395 268.587 125.339 268.587 128.969V204.398H314.138Z" fill="#FFD274"/>
<path d="M275.153 119.091H307.56V122.378H275.153V119.091Z" fill="white"/>
<path fill-rule="evenodd" clip-rule="evenodd" d="M284.588 204.396C285.038 200.56 285.911 196.554 287.472 193.175C289.324 189.166 292.154 186.043 296.519 185.394C296.523 185.878 296.549 186.369 296.599 186.869C296.838 189.269 297.585 192.25 299.501 193.905C300.549 194.81 301.58 195.113 302.496 195.051C303.878 194.96 305.083 194.014 305.799 192.618C306.888 190.498 306.803 187.402 304.713 185.542C303.095 184.1 300.944 183.354 298.78 183.208C299.913 176.028 306.935 171.471 314.138 170.604V168.498C305.859 169.434 297.771 174.857 296.65 183.255L296.549 183.268C291.262 183.913 287.772 187.509 285.562 192.294C283.879 195.937 282.948 200.273 282.48 204.396H284.588ZM298.622 185.303C300.334 185.41 302.037 185.975 303.314 187.113C304.653 188.305 304.625 190.3 303.928 191.657C303.572 192.35 303.044 192.907 302.358 192.953C301.897 192.983 301.403 192.769 300.876 192.313C299.351 190.994 298.883 188.571 298.693 186.66C298.647 186.199 298.623 185.747 298.622 185.303ZM268.587 132.697V134.863C268.977 134.968 269.304 135.064 269.443 135.092C276.584 136.569 284.175 142.456 283.275 150.451C282.096 149.748 280.735 149.245 279.458 149.082C277.674 148.854 276.075 149.294 275.165 150.471C274.564 151.249 274.222 152.385 274.422 153.982C274.68 156.053 275.588 157.126 276.66 157.587C277.716 158.04 279.043 157.901 280.356 157.277C281.785 156.597 283.19 155.348 284.138 153.97C284.171 154.023 284.202 154.075 284.231 154.13C287.37 159.944 286.034 166.725 282.306 171.422C279.095 175.465 274.086 177.967 268.587 176.915V179.056C274.747 180.087 280.346 177.275 283.954 172.73C288.178 167.409 289.64 159.717 286.082 153.13C285.853 152.706 285.536 152.294 285.153 151.901C285.203 151.726 285.243 151.551 285.271 151.379C286.81 141.946 278.192 134.754 269.869 133.032C269.679 132.992 269.157 132.84 268.587 132.697ZM282.63 152.489C281.921 153.679 280.68 154.792 279.453 155.376C278.751 155.709 278.055 155.895 277.491 155.653C276.943 155.418 276.641 154.778 276.509 153.723C276.399 152.836 276.497 152.189 276.83 151.757C277.321 151.123 278.229 151.046 279.192 151.168C280.352 151.317 281.621 151.808 282.63 152.489ZM314.138 145.896C308.447 143.894 303.478 140.021 300.858 134.377C299.557 131.575 298.826 128.512 298.763 125.423C298.742 124.397 298.746 123.342 298.915 122.327L296.787 122.332C296.647 123.366 296.638 124.431 296.66 125.465C296.729 128.846 297.527 132.198 298.949 135.263C301.919 141.66 307.634 146.005 314.138 148.114V145.896ZM275.161 109.061C277.058 111.141 279.541 112.836 282.11 113.762C285.014 114.809 288.01 114.87 290.417 113.545C291.305 113.055 292.12 112.379 292.821 111.483C298.578 112.561 303.711 108.251 305.674 103.554C305.763 103.342 305.846 103.127 305.921 102.913C305.413 102.211 304.833 101.536 304.318 101.063C304.196 101.608 303.961 102.196 303.733 102.743C302.204 106.4 298.418 109.891 294.004 109.523C294.115 109.282 294.22 109.032 294.319 108.772C294.604 108.022 294.605 107.021 294.333 105.974C293.969 104.578 293.134 103.097 292.116 102.139C290.704 100.812 288.99 100.426 287.466 101.78C286.049 103.041 286.026 104.859 286.929 106.652C287.717 108.218 289.232 109.733 290.762 110.648C290.348 111.083 289.892 111.432 289.402 111.702C287.496 112.75 285.122 112.612 282.823 111.783C279.924 110.738 277.12 108.586 275.423 106.032C275.21 106.914 275.149 107.931 275.161 109.061ZM291.95 108.939C290.714 108.257 289.453 106.987 288.809 105.706C288.375 104.845 288.183 103.958 288.864 103.353C289.465 102.818 290.118 103.149 290.674 103.672C291.425 104.378 292.029 105.476 292.297 106.503C292.445 107.073 292.507 107.617 292.352 108.025C292.229 108.35 292.095 108.653 291.95 108.939Z" fill="white"/>
<path fill-rule="evenodd" clip-rule="evenodd" d="M101.629 190.466C101.469 184.517 96.523 179.727 90.446 179.727C84.3674 179.727 79.4231 184.517 79.2635 190.466H81.3675C81.527 185.668 85.5386 181.831 90.446 181.831C95.3535 181.831 99.3651 185.668 99.5228 190.466H101.629ZM65.8876 181.454C67.5655 182.446 69.5292 183.016 71.6279 183.016C77.8065 183.016 82.814 178.068 82.814 171.982C82.814 165.897 77.8065 160.949 71.6279 160.949C68.188 160.949 65.1109 162.481 63.0578 164.892L63.5663 167.866C65.0829 165.006 68.1266 163.053 71.6279 163.053C76.6353 163.053 80.71 167.048 80.71 171.982C80.71 176.916 76.6353 180.912 71.6279 180.912C69.2066 180.912 67.0045 179.979 65.3757 178.457L65.8876 181.454ZM116.36 157.272C114.38 155.528 111.771 154.465 108.91 154.465C102.731 154.465 97.7222 159.415 97.7222 165.5C97.7222 171.584 102.731 176.534 108.91 176.534C110.481 176.534 111.977 176.213 113.334 175.636L113.76 173.05C112.355 173.923 110.691 174.43 108.91 174.43C103.901 174.43 99.8262 170.432 99.8262 165.5C99.8262 160.567 103.901 156.569 108.91 156.569C111.738 156.569 114.27 157.845 115.935 159.842L116.36 157.272ZM61.5412 156.008C66.9133 155.2 71.0301 150.618 71.0301 145.101C71.0301 139.015 66.0227 134.067 59.844 134.067C59.155 134.067 58.48 134.129 57.8242 134.246L58.1784 136.32C58.7184 136.222 59.2742 136.171 59.844 136.171C64.8532 136.171 68.9261 140.167 68.9261 145.101C68.9261 149.584 65.5615 153.294 61.1871 153.934L61.5412 156.008ZM121.308 123.972C120.873 123.921 120.429 123.895 119.98 123.895C113.803 123.895 108.794 128.842 108.794 134.928C108.794 140.432 112.892 145.006 118.245 145.83L118.586 143.754C114.238 143.093 110.898 139.396 110.898 134.928C110.898 129.996 114.973 125.999 119.98 125.999C120.496 125.999 121.001 126.041 121.492 126.121L121.62 125.352C121.521 124.88 121.418 124.421 121.308 123.972ZM73.9896 105.103C73.1358 105.401 72.324 105.711 71.549 106.032C74.3683 107.547 76.2829 110.489 76.2829 113.871C76.2829 118.805 72.2083 122.801 67.2009 122.801C63.1192 122.801 59.6582 120.148 58.5168 116.494C58.0241 117.376 57.6401 118.244 57.3403 119.084C59.2269 122.546 62.9351 124.905 67.2009 124.905C73.3795 124.905 78.3869 119.957 78.3869 113.871C78.3869 110.301 76.6634 107.121 73.9896 105.103ZM100.605 97.7179C94.5488 97.8564 89.6834 102.75 89.6834 108.748C89.6834 114.834 94.6908 119.783 100.869 119.783C107.025 119.783 112.02 114.869 112.055 108.815C111.323 108.269 110.583 107.791 109.844 107.373C109.915 107.82 109.951 108.28 109.951 108.748C109.951 113.682 105.879 117.679 100.869 117.679C95.8602 117.679 91.7873 113.682 91.7873 108.748C91.7873 104.174 95.2904 100.404 99.7946 99.8797L100.605 97.7179ZM89.6238 84.0808C89.7763 84.7295 89.8569 85.4045 89.8569 86.0988C89.8569 91.0308 85.784 95.0283 80.7749 95.0283C78.9357 95.0283 77.2227 94.4901 75.7902 93.5626L76.979 96.4801C78.166 96.9026 79.4424 97.1323 80.7749 97.1323C86.9535 97.1323 91.9609 92.1845 91.9609 86.0988C91.9609 85.4098 91.8978 84.7347 91.775 84.0808H89.6238Z" fill="#A1BEEF"/>
<path fill-rule="evenodd" clip-rule="evenodd" d="M88.9202 131.948C83.9625 131.948 79.926 135.861 79.926 140.696C79.926 145.531 83.9625 149.445 88.9202 149.445C89.5 149.445 89.9718 149.917 89.9718 150.497C89.9718 151.078 89.5 151.548 88.9202 151.548C82.7874 151.548 77.8229 146.678 77.8229 140.696C77.8229 134.713 82.7874 129.842 88.9202 129.842C89.5 129.842 89.9718 130.314 89.9718 130.895C89.9718 131.476 89.5 131.948 88.9202 131.948Z" fill="#A1BEEF"/>
<path fill-rule="evenodd" clip-rule="evenodd" d="M88.917 149.445C93.873 149.445 97.9112 145.531 97.9112 140.696C97.9112 135.861 93.873 131.948 88.917 131.948C88.3355 131.948 87.8654 131.476 87.8654 130.895C87.8654 130.314 88.3355 129.842 88.917 129.842C95.0498 129.842 100.014 134.713 100.014 140.696C100.014 146.678 95.0498 151.548 88.917 151.548C88.3355 151.548 87.8654 151.078 87.8654 150.497C87.8654 149.917 88.3355 149.445 88.917 149.445Z" fill="#A1BEEF"/>
<path fill-rule="evenodd" clip-rule="evenodd" d="M73.1143 85.1324H93.5966C94.1772 85.1324 94.6495 84.66 94.6495 84.0794C94.6495 83.4989 94.1772 83.0283 93.5966 83.0283H71.5204C71.167 83.0283 70.8371 83.205 70.6423 83.5007C70.4476 83.7946 70.4152 84.1678 70.554 84.4923L78.6604 103.462H78.0095C71.4176 103.462 65.1629 106.368 60.9132 111.406C56.6635 116.444 54.8515 123.099 55.9603 129.595C60.2966 154.976 66.389 190.641 66.389 190.641C66.4755 191.146 66.9137 191.516 67.4257 191.516H93.5966C94.1772 191.516 94.6495 191.045 94.6495 190.465C94.6495 189.884 94.1772 189.412 93.5966 189.412H68.3128L58.0356 129.24C57.0295 123.355 58.6703 117.325 62.5215 112.762C66.371 108.198 72.0379 105.566 78.0095 105.566H80.2542C80.6076 105.566 80.9376 105.388 81.1323 105.094C81.327 104.798 81.3595 104.425 81.2206 104.1L73.1143 85.1324Z" fill="#3968BE"/>
<path fill-rule="evenodd" clip-rule="evenodd" d="M99.646 103.462L107.752 84.4923C107.891 84.1678 107.859 83.7946 107.664 83.5007C107.469 83.205 107.139 83.0283 106.786 83.0283H84.7098C84.1292 83.0283 83.6569 83.4989 83.6569 84.0794C83.6569 84.66 84.1292 85.1324 84.7098 85.1324H105.192L97.0857 104.1C96.9469 104.425 96.9794 104.798 97.1741 105.094C97.3688 105.388 97.6988 105.566 98.0522 105.566H100.297C106.269 105.566 111.935 108.198 115.785 112.762C119.636 117.325 121.277 123.355 120.271 129.24L109.994 189.412H84.7098C84.1292 189.412 83.6569 189.884 83.6569 190.465C83.6569 191.045 84.1292 191.516 84.7098 191.516H110.881C111.393 191.516 111.831 191.146 111.917 190.641C111.917 190.641 118.01 154.976 122.346 129.595C123.455 123.099 121.643 116.444 117.393 111.406C113.143 106.368 106.889 103.462 100.297 103.462H99.646Z" fill="#3968BE"/>
<path fill-rule="evenodd" clip-rule="evenodd" d="M88.3054 83.1268C88.2353 82.7701 88.1582 82.4146 88.0793 82.0606C87.669 80.2489 87.2149 78.4399 86.6205 76.6754C85.6615 73.825 85.6018 73.7595 84.8164 71.72C84.385 70.5965 83.8626 69.5102 83.3348 68.4303C76.7582 54.9699 64.8937 45.1517 50.8498 40.1983C49.9328 39.8748 42.6584 37.7494 39.4499 37.2541C38.6223 37.1263 38.0017 37.1253 37.7001 37.2014C37.409 37.2748 37.2127 37.4118 37.0812 37.5452C36.834 37.7978 36.6183 38.2209 36.8585 38.8151C36.9549 39.056 37.2618 39.4847 37.6931 39.9428C38.4277 40.7246 39.5358 41.7124 39.6655 41.8441C42.7268 44.9334 45.3444 48.45 48.6126 51.3327C51.6931 54.0502 55.1699 56.2972 58.8518 58.1094C63.1264 60.2125 71.5247 63.1354 77.6454 67.489C79.7827 69.0096 81.6482 70.6986 82.9053 72.6028C83.5137 74.0798 84.0607 75.5832 84.5499 77.1058C84.5551 77.1685 85.7018 81.0924 86.0261 82.525C86.0717 82.7251 86.1156 82.9257 86.1576 83.1268H88.3054Z" fill="#EF7B58"/>
<path fill-rule="evenodd" clip-rule="evenodd" d="M82.9122 72.5982C83.5206 74.0752 77.7786 57.3775 58.8587 51.4957C47.2572 47.889 35.4751 36.8329 37.0881 37.5405C37.4125 37.6827 36.6252 38.2163 36.8654 38.8104C36.9619 39.0513 37.2687 39.48 37.7 39.9382C38.4346 40.72 39.5427 41.7078 39.6725 41.8394C42.7337 44.9287 45.3514 48.4453 48.6195 51.3281C51.7 54.0455 55.1768 56.2925 58.8587 58.1047C63.1333 60.2078 71.5316 63.1307 77.6523 67.4843C79.7896 69.005 81.6551 70.6939 82.9122 72.5982Z" fill="#F24D46"/>
<path fill-rule="evenodd" clip-rule="evenodd" d="M61.6377 84.0342C64.2536 82.9419 74.4631 81.3832 77.4332 81.811C78.0065 81.8934 78.3519 81.1149 78.2204 80.5486C78.1573 80.2733 77.9942 79.9771 77.6102 79.7719C77.3525 79.6334 76.688 79.5072 75.7272 79.53C72.1785 79.6194 63.3174 81.0518 60.8277 82.0933C53.9145 84.9827 50.6095 90.7879 47.6763 97.2137C47.6131 97.2698 47.5553 97.3347 47.5044 97.4083C45.3479 100.575 41.7343 102.603 37.8964 104.29C33.8445 106.068 29.5349 107.455 26.2194 109.211C23.7929 110.497 21.5048 112.05 19.4114 113.828C16.7832 116.058 14.4496 118.795 12.9996 121.947C12.3877 123.276 12.5472 124.214 13.0013 124.823C13.3012 125.224 13.7658 125.533 14.4057 125.692C15.0545 125.856 15.9399 125.87 16.9936 125.729C22.9338 124.942 34.9999 119.307 36.897 117.832C43.3228 112.841 46.1825 105.677 49.1806 98.9898C52.0016 92.7025 54.9279 86.8377 61.6377 84.0342ZM76.1848 81.0781L76.1866 81.0869L76.1848 81.0799V81.0781Z" fill="#EF7B58"/>
<path fill-rule="evenodd" clip-rule="evenodd" d="M49.1732 98.991C33.4023 126.351 24.0993 109.258 14.3983 125.694C14.3983 125.694 15.9325 125.871 16.9862 125.731C19.2585 125.429 22.4249 124.419 25.5756 123.206C30.6672 121.242 35.7184 118.744 36.8896 117.834C43.3154 112.842 49.1732 98.991 49.1732 98.991Z" fill="#F24D46"/>
<path fill-rule="evenodd" clip-rule="evenodd" d="M103.656 83.1263C103.922 82.4937 104.203 81.8667 104.499 81.2466C105.588 78.967 106.908 76.8648 108.441 74.9493C108.504 74.9023 108.563 74.8471 108.616 74.784C113.225 69.3126 118.59 69.0395 124.141 70.1384C130.111 71.3205 136.3 74.0095 142.114 74.2226C143.48 74.2725 151.703 73.2383 155.033 71.9466C155.79 71.6526 156.332 71.3147 156.618 71.0063C156.889 70.7133 157.016 70.4025 157.047 70.1071C157.07 69.8895 157.031 69.674 156.926 69.4697C156.821 69.2658 156.556 69.0391 156.416 68.9497C153.809 67.2772 150.52 66.1809 147.671 65.0246C137.403 60.8581 126.827 59.3315 116.785 65.1237C110.545 68.723 105.695 73.8591 102.6 80.3398C102.162 81.2555 101.759 82.1855 101.382 83.1263H103.656Z" fill="#EF7B58"/>
<path fill-rule="evenodd" clip-rule="evenodd" d="M156.615 71.0024C151.264 71.0788 148.225 71.9809 141.572 69.7311C126.131 64.5092 120.439 62.8529 117.503 69.7311C117.503 69.7311 121.882 69.6881 124.139 70.1345C130.109 71.3166 136.298 74.0056 142.112 74.2186C143.478 74.2686 151.701 73.2343 155.03 71.9427C155.787 71.6486 156.615 71.0024 156.615 71.0024Z" fill="#F24D46"/>
<path fill-rule="evenodd" clip-rule="evenodd" d="M82.5459 83.1284C82.5108 82.8689 82.0567 82.622 81.8358 82.4462C78.9201 80.129 75.8483 78.1915 72.638 76.6493C71.8841 76.2876 70.8234 75.8133 69.8608 75.4274C62.106 72.322 53.606 71.4311 44.5976 72.9496C41.133 73.5337 37.6913 74.3637 34.3741 75.5245C32.4227 76.2074 30.438 77.0178 28.6917 78.142C28.4427 78.3026 27.5275 78.8048 27.1523 79.2836C26.6771 79.8922 26.6631 80.5188 27.0979 81.0718C27.9886 82.2051 29.5823 82.9501 31.4093 83.3712C33.8429 83.9312 36.6832 83.9628 38.3611 83.968C42.8057 83.9856 47.3012 83.2331 51.595 82.1134C54.3301 81.4002 59.3743 79.2771 63.9943 78.1527C65.9071 77.687 67.7411 77.3714 69.2629 77.4607C72.7678 78.8817 76.113 80.7774 79.2725 83.1284H82.5459Z" fill="#EF7B58"/>
<path fill-rule="evenodd" clip-rule="evenodd" d="M69.2583 77.4547C56.44 69.0631 46.1306 87.7491 27.0933 81.0658C25.7328 80.5882 29.5777 82.9441 31.4047 83.3652C33.8382 83.9252 36.6786 83.9568 38.3565 83.962C42.8011 83.9795 47.2965 83.227 51.5904 82.1074C54.3255 81.3941 59.3697 79.2711 63.9896 78.1467C65.9025 77.681 67.7364 77.3654 69.2583 77.4547Z" fill="#F24D46"/>
<path fill-rule="evenodd" clip-rule="evenodd" d="M99.1942 83.1227L106.777 6.81901C106.835 6.2413 106.412 5.72565 105.836 5.66814C105.257 5.61081 104.742 6.03318 104.684 6.61106L97.0797 83.1227H99.1942ZM93.4416 83.1227V20.9216C93.4416 20.3411 92.97 19.8697 92.3896 19.8697C91.8093 19.8697 91.3376 20.3411 91.3376 20.9216V83.1227H93.4416Z" fill="#EF7B58"/>
<path d="M105.709 10.4692C103.01 10.4692 100.821 8.28069 100.821 5.58102C100.821 2.88136 103.01 0.692841 105.709 0.692841C108.409 0.692841 110.598 2.88136 110.598 5.58102C110.598 8.28069 108.409 10.4692 105.709 10.4692Z" fill="#FFD274"/>
<path d="M91.6602 21.6782C88.9626 21.5718 86.862 19.2987 86.9684 16.6011C87.0749 13.9036 89.3479 11.803 92.0455 11.9094C94.7431 12.0158 96.8437 14.2889 96.7372 16.9865C96.6308 19.6841 94.3577 21.7846 91.6602 21.6782Z" fill="#FFD274"/>
<path fill-rule="evenodd" clip-rule="evenodd" d="M280.108 73.512L285.633 78.677L267.423 211.545L151.512 216.311L0.709167 211.545V194.615L151.512 198.227L258.656 194.615L280.108 73.512Z" fill="#3968BE"/>
<path fill-rule="evenodd" clip-rule="evenodd" d="M280.107 73.512L110.953 85.7255L84.242 186.347L0.708008 194.615L151.511 199.29L258.655 194.615L280.107 73.512Z" fill="#628DDF"/>
<path fill-rule="evenodd" clip-rule="evenodd" d="M84.0666 186.384L233.862 194.431L151.514 198.026L0.708008 194.505V197.07L150.471 200.561V216.267L151.511 216.311L152.575 216.269V200.547L258.724 195.915C259.327 195.888 259.83 195.445 259.932 194.85L280.107 73.512L277.58 73.6945L257.578 193.397L256.219 193.456L84.7872 184.313C84.5365 185.265 84.2612 186.301 84.242 186.347C84.2384 186.356 84.1771 186.368 84.0666 186.384Z" fill="white"/>
<path fill-rule="evenodd" clip-rule="evenodd" d="M270.839 82.0854L251.239 186.344L92.7364 180.025L116.788 90.4879L270.839 82.0854Z" fill="white"/>
<path fill-rule="evenodd" clip-rule="evenodd" d="M242.683 209.294C242.708 209.198 242.72 209.096 242.716 208.991L242.428 200.135C242.426 200.062 242.415 199.988 242.398 199.918L240.338 200.004C240.327 200.069 240.323 200.135 240.325 200.205L240.614 209.061C240.617 209.18 240.641 209.293 240.681 209.4L242.683 209.294ZM246.503 209.095C246.517 209.021 246.523 208.946 246.52 208.868L246.232 200.013C246.229 199.925 246.216 199.842 246.193 199.762L244.147 199.846C244.133 199.921 244.126 200 244.129 200.081L244.417 208.937C244.42 209.028 244.435 209.117 244.46 209.202L246.503 209.095ZM250.318 208.893C250.324 208.846 250.326 208.795 250.324 208.744L250.036 199.888C250.033 199.79 250.016 199.695 249.988 199.606L247.958 199.688C247.939 199.774 247.93 199.865 247.933 199.956L248.221 208.812C248.223 208.877 248.231 208.94 248.245 209.003L250.318 208.893ZM254.128 208.695C254.129 208.67 254.129 208.646 254.128 208.621L253.84 199.765C253.836 199.653 253.816 199.548 253.78 199.45L251.77 199.532C251.745 199.629 251.733 199.728 251.737 199.834L252.025 208.69C252.026 208.728 252.03 208.767 252.035 208.804L254.128 208.695ZM257.932 208.495L257.643 199.641C257.639 199.518 257.615 199.401 257.572 199.292L255.584 199.374C255.552 199.479 255.537 199.593 255.541 199.709L255.829 208.565C255.83 208.579 255.83 208.591 255.831 208.605L257.932 208.495Z" fill="#628DDF"/>
<path fill-rule="evenodd" clip-rule="evenodd" d="M165.128 153.193C165.128 153.193 167.427 132.111 168.467 122.573C168.756 119.924 167.089 117.452 164.524 116.728C162.555 116.17 160.676 115.639 160.676 115.639C160.676 115.639 161.628 106.499 154.644 106.911C153.398 106.983 152.223 107.521 151.357 108.42C150.896 108.892 150.468 109.511 150.217 110.295C150.217 110.295 148.75 104.726 142.697 106.823C142.697 106.823 140.616 107.17 140.339 109.874C140.339 109.874 139.306 105.708 134.287 107.714C134.287 107.714 132.3 108.422 131.752 111.818C131.752 111.818 131.731 108.638 127.982 108.683C126.711 108.699 125.024 109.201 124.456 116.906L121.774 151.83L165.128 153.193Z" fill="#DE7861"/>
<path fill-rule="evenodd" clip-rule="evenodd" d="M141.432 125.942C141.358 124.792 141.382 123.104 141.451 121.189C141.614 116.613 142.077 110.785 142.347 107.61C142.371 107.334 142.441 106.951 142.441 106.951C141.381 107.319 140.725 108.152 140.439 109.407C140.439 109.407 140.413 109.721 140.401 109.88C140.139 113.145 139.827 117.521 139.699 121.126C139.629 123.063 139.622 124.783 139.696 126.019C139.414 127.168 138.942 127.92 138.358 128.39C137.467 129.109 136.358 129.158 135.497 129.11C133.312 128.988 132.711 127.059 132.6 126.61L133.731 109.107L133.794 107.96C132.823 108.592 132.132 110.047 131.808 111.376L131.762 112.009L130.843 126.608C130.838 126.665 130.84 126.719 130.847 126.773C130.445 127.059 129.744 127.529 128.924 127.818C128.313 128.034 127.626 128.158 126.967 127.937C126.423 127.757 125.999 127.278 125.473 126.593C124.141 124.857 123.965 122.809 123.965 122.809L123.732 127.041C123.732 127.041 124.644 128.811 125.808 129.34C126.769 129.777 127.73 129.894 128.664 129.707C129.79 129.482 130.824 128.895 131.492 128.455C132.108 129.522 133.27 130.741 135.4 130.86C136.628 130.929 138.186 130.78 139.459 129.756C139.79 129.487 140.108 129.159 140.392 128.754C141.582 130.801 144.158 131.856 146.32 130.992C147.279 130.606 148.191 129.836 148.839 128.563C148.902 128.846 148.985 129.102 149.081 129.337C148.955 129.421 148.816 129.512 148.787 129.535C148.257 129.969 147.74 130.42 147.217 130.864C145.231 132.552 143.241 134.353 141.621 136.406C141.254 136.87 140.911 137.356 140.593 137.859C140.15 137.468 139.685 137.1 139.203 136.758C137.587 135.613 135.809 134.821 133.906 134.295C133.438 134.165 132.956 134.44 132.826 134.907C132.698 135.373 132.972 135.855 133.438 135.985C135.146 136.455 136.74 137.162 138.188 138.189C138.719 138.566 139.226 138.978 139.706 139.42C139.613 139.6 139.526 139.781 139.438 139.965C138.987 140.924 138.614 141.929 138.376 142.963C138.198 143.726 138.083 144.518 138.179 145.3C138.297 146.244 138.646 147.262 139.41 147.886C140.953 149.145 143.364 148.437 144.332 146.831C145.108 145.544 144.833 143.885 144.274 142.598C143.823 141.566 143.185 140.619 142.459 139.762C142.271 139.541 142.079 139.323 141.88 139.111C142.219 138.548 142.592 138.005 142.997 137.491C144.545 135.529 146.453 133.814 148.354 132.201C148.86 131.77 149.362 131.332 149.875 130.911C149.907 130.89 149.984 130.839 150.075 130.776C150.985 131.602 152.141 131.835 152.909 131.874C156.89 132.072 157.688 128.516 157.688 128.516C157.799 128.044 157.504 127.573 157.034 127.462C156.562 127.352 156.091 127.645 155.98 128.116C155.98 128.116 155.447 130.245 152.996 130.122C152.505 130.097 151.743 129.975 151.18 129.405C150.566 128.783 150.251 127.68 150.557 125.788C150.635 125.311 150.31 124.86 149.832 124.783C149.774 124.773 149.716 124.771 149.66 124.773C149.535 124.492 149.267 124.287 148.941 124.256C148.459 124.21 148.031 124.566 147.985 125.046C147.754 127.525 146.847 128.891 145.668 129.363C144.032 130.019 142.059 128.893 141.584 127.098C141.524 126.87 141.481 126.556 141.449 126.17C141.454 126.093 141.447 126.016 141.432 125.942ZM141.004 140.758L141.121 140.896C141.737 141.622 142.284 142.423 142.666 143.298C143.013 144.099 143.313 145.127 142.831 145.926C142.371 146.689 141.251 147.125 140.518 146.528C140.101 146.187 139.983 145.6 139.92 145.085C139.848 144.506 139.954 143.922 140.083 143.358C140.29 142.46 140.615 141.592 141.004 140.758ZM150.421 109.736C150.91 108.77 151.509 108.122 152.258 107.678L152.27 108.297L151.787 115.82C151.757 116.303 151.339 116.671 150.856 116.639C150.373 116.608 150.007 116.19 150.037 115.708L150.421 109.736Z" fill="#8F3536"/>
<path fill-rule="evenodd" clip-rule="evenodd" d="M145.601 120.314C145.513 120.823 144.647 126.801 160.525 130.171C160.999 130.271 161.468 129.985 161.577 129.514C161.686 129.042 161.391 128.57 160.92 128.462C155.942 127.312 150.773 125.162 149.171 123.791C147.149 122.06 147.328 120.617 147.328 120.617L147.34 120.542C147.463 119.402 148.087 118.557 148.983 117.917C150.002 117.193 151.35 116.725 152.791 116.411C155.267 115.873 158.018 115.803 160.022 115.852C160.227 115.857 160.701 115.877 160.701 115.877L160.764 114.128C160.764 114.128 160.353 114.111 160.185 114.107C158.058 114.051 155.086 114.118 152.42 114.698C148.896 115.463 145.962 117.174 145.601 120.314Z" fill="#8F3536"/>
<path fill-rule="evenodd" clip-rule="evenodd" d="M240.483 155.108C240.483 155.108 242.782 134.026 243.822 124.488C244.111 121.839 242.445 119.367 239.879 118.643C237.911 118.085 236.031 117.554 236.031 117.554C236.031 117.554 236.983 108.414 230 108.826C228.753 108.898 227.578 109.436 226.712 110.335C226.251 110.807 225.823 111.426 225.573 112.21C225.573 112.21 224.105 106.641 218.053 108.738C218.053 108.738 215.972 109.085 215.695 111.789C215.695 111.789 214.662 107.623 209.642 109.629C209.642 109.629 207.656 110.337 207.107 113.733C207.107 113.733 207.086 110.553 203.337 110.598C202.066 110.614 200.38 111.116 199.811 118.821L197.129 153.745L240.483 155.108Z" fill="#AB494A"/>
<path fill-rule="evenodd" clip-rule="evenodd" d="M216.787 127.857C216.713 126.707 216.738 125.019 216.806 123.104C216.969 118.528 217.432 112.7 217.702 109.525C217.727 109.249 217.797 108.865 217.797 108.865C216.736 109.234 216.08 110.066 215.795 111.322C215.795 111.322 215.768 111.636 215.756 111.795C215.495 115.06 215.183 119.436 215.055 123.041C214.985 124.978 214.977 126.698 215.051 127.934C214.769 129.083 214.297 129.835 213.713 130.305C212.823 131.024 211.713 131.073 210.852 131.025C208.667 130.903 208.066 128.974 207.956 128.525L209.086 111.022L209.15 109.875C208.178 110.507 207.487 111.962 207.163 113.291L207.117 113.924L206.199 128.523C206.193 128.579 206.195 128.634 206.202 128.688C205.801 128.974 205.099 129.444 204.279 129.733C203.669 129.949 202.981 130.073 202.322 129.852C201.779 129.672 201.354 129.193 200.828 128.508C199.496 126.772 199.321 124.724 199.321 124.724L199.087 128.956C199.087 128.956 199.999 130.726 201.163 131.255C202.124 131.692 203.085 131.809 204.019 131.621C205.145 131.397 206.179 130.81 206.847 130.37C207.463 131.437 208.625 132.656 210.756 132.775C211.983 132.843 213.542 132.694 214.814 131.671C215.146 131.402 215.463 131.074 215.747 130.669C216.938 132.715 219.513 133.771 221.675 132.907C222.634 132.521 223.546 131.751 224.195 130.478C224.258 130.761 224.34 131.017 224.437 131.252C224.31 131.336 224.172 131.427 224.142 131.45C223.612 131.884 223.095 132.335 222.573 132.779C220.586 134.467 218.596 136.268 216.976 138.321C216.61 138.785 216.266 139.271 215.949 139.774C215.505 139.383 215.041 139.015 214.558 138.673C212.942 137.528 211.164 136.736 209.262 136.21C208.794 136.08 208.311 136.355 208.182 136.822C208.054 137.288 208.327 137.77 208.794 137.9C210.501 138.37 212.095 139.076 213.543 140.104C214.075 140.481 214.581 140.893 215.062 141.335C214.969 141.515 214.881 141.696 214.793 141.88C214.343 142.839 213.969 143.844 213.731 144.878C213.554 145.641 213.438 146.433 213.535 147.215C213.652 148.159 214.001 149.177 214.765 149.801C216.308 151.06 218.719 150.352 219.687 148.746C220.464 147.459 220.188 145.8 219.629 144.513C219.178 143.481 218.54 142.534 217.814 141.677C217.627 141.456 217.434 141.238 217.236 141.026C217.574 140.463 217.948 139.92 218.353 139.406C219.901 137.444 221.808 135.729 223.709 134.116C224.216 133.685 224.717 133.247 225.231 132.826C225.262 132.805 225.339 132.754 225.431 132.691C226.341 133.517 227.496 133.75 228.264 133.789C232.246 133.987 233.043 130.431 233.043 130.431C233.154 129.959 232.859 129.488 232.389 129.377C231.918 129.267 231.446 129.56 231.336 130.031C231.336 130.031 230.803 132.16 228.352 132.037C227.861 132.012 227.098 131.89 226.535 131.32C225.922 130.697 225.606 129.595 225.913 127.703C225.99 127.226 225.666 126.775 225.187 126.698C225.129 126.688 225.071 126.686 225.015 126.688C224.891 126.407 224.622 126.202 224.296 126.17C223.814 126.125 223.386 126.481 223.341 126.961C223.109 129.44 222.203 130.806 221.023 131.278C219.387 131.934 217.415 130.808 216.939 129.013C216.88 128.785 216.836 128.471 216.804 128.085C216.81 128.008 216.803 127.931 216.787 127.857ZM216.359 142.672L216.477 142.811C217.092 143.537 217.639 144.338 218.021 145.213C218.368 146.014 218.668 147.042 218.186 147.841C217.727 148.604 216.606 149.04 215.873 148.443C215.456 148.102 215.339 147.515 215.276 147C215.204 146.421 215.309 145.837 215.439 145.273C215.646 144.375 215.97 143.507 216.359 142.672ZM225.776 111.651C226.265 110.685 226.865 110.037 227.613 109.593L227.626 110.212L227.142 117.735C227.112 118.218 226.695 118.586 226.211 118.554C225.729 118.523 225.362 118.105 225.392 117.623L225.776 111.651Z" fill="#4B0000"/>
<path fill-rule="evenodd" clip-rule="evenodd" d="M220.957 122.229C220.869 122.737 220.003 128.716 235.881 132.086C236.354 132.186 236.824 131.9 236.933 131.429C237.041 130.957 236.747 130.485 236.275 130.377C231.297 129.226 226.129 127.077 224.526 125.706C222.505 123.975 222.683 122.532 222.683 122.532L222.696 122.457C222.818 121.317 223.443 120.472 224.339 119.832C225.357 119.108 226.706 118.64 228.147 118.326C230.622 117.788 233.373 117.718 235.377 117.767C235.582 117.772 236.056 117.791 236.056 117.791L236.119 116.043C236.119 116.043 235.709 116.026 235.54 116.022C233.414 115.966 230.442 116.033 227.775 116.613C224.251 117.378 221.318 119.089 220.957 122.229Z" fill="#4B0000"/>
<path fill-rule="evenodd" clip-rule="evenodd" d="M197.945 167.957C197.945 167.957 200.244 146.875 201.284 137.337C201.573 134.688 199.906 132.216 197.341 131.492C195.372 130.934 193.493 130.403 193.493 130.403C193.493 130.403 194.445 121.263 187.462 121.675C186.215 121.747 185.04 122.285 184.174 123.185C183.713 123.656 183.285 124.275 183.034 125.059C183.034 125.059 181.567 119.49 175.515 121.587C175.515 121.587 173.433 121.934 173.156 124.638C173.156 124.638 172.124 120.472 167.104 122.478C167.104 122.478 165.118 123.186 164.569 126.582C164.569 126.582 164.548 123.402 160.799 123.448C159.528 123.463 157.466 124.301 156.495 131.474L153.378 166.477L197.945 167.957Z" fill="#4B0000"/>
<path fill-rule="evenodd" clip-rule="evenodd" d="M174.249 140.706C174.175 139.556 174.2 137.868 174.268 135.953C174.431 131.377 174.894 125.549 175.164 122.374C175.189 122.099 175.259 121.715 175.259 121.715C174.198 122.083 173.542 122.916 173.256 124.171C173.256 124.171 173.23 124.485 173.218 124.644C172.957 127.909 172.645 132.285 172.517 135.89C172.446 137.827 172.439 139.547 172.513 140.783C172.231 141.932 171.759 142.684 171.175 143.154C170.285 143.873 169.175 143.922 168.314 143.874C166.129 143.752 165.528 141.823 165.417 141.374L166.548 123.871L166.611 122.724C165.64 123.356 164.949 124.811 164.625 126.14L164.579 126.773L163.661 141.373C163.655 141.429 163.657 141.483 163.664 141.537C163.263 141.823 162.561 142.293 161.741 142.582C161.131 142.798 160.443 142.922 159.784 142.702C159.241 142.521 158.581 142.055 158.02 141.397C156.7 139.851 155.925 137.834 155.925 137.834L155.645 140.969C155.645 140.969 156.52 143.424 158.625 144.104C159.63 144.429 160.547 144.658 161.481 144.471C162.607 144.246 163.641 143.659 164.309 143.219C164.925 144.286 166.087 145.505 168.217 145.624C169.445 145.693 171.003 145.544 172.276 144.52C172.608 144.251 172.925 143.924 173.209 143.519C174.4 145.565 176.975 146.62 179.137 145.756C180.096 145.37 181.008 144.6 181.656 143.327C181.72 143.61 181.802 143.866 181.898 144.101C181.772 144.185 181.634 144.276 181.604 144.299C181.074 144.734 180.557 145.184 180.035 145.628C178.048 147.316 176.058 149.117 174.438 151.17C174.072 151.635 173.728 152.12 173.411 152.623C172.967 152.232 172.503 151.864 172.02 151.522C170.404 150.377 168.626 149.585 166.724 149.059C166.256 148.929 165.773 149.204 165.644 149.671C165.516 150.137 165.789 150.619 166.256 150.749C167.963 151.219 169.557 151.926 171.005 152.953C171.536 153.33 172.043 153.742 172.524 154.184C172.431 154.364 172.343 154.545 172.255 154.729C171.805 155.688 171.431 156.693 171.193 157.727C171.016 158.49 170.9 159.282 170.996 160.064C171.114 161.008 171.463 162.026 172.227 162.65C173.77 163.909 176.181 163.201 177.149 161.595C177.925 160.308 177.65 158.649 177.091 157.363C176.64 156.33 176.002 155.383 175.276 154.526C175.089 154.305 174.896 154.087 174.698 153.875C175.036 153.312 175.41 152.769 175.815 152.255C177.363 150.293 179.27 148.579 181.171 146.966C181.678 146.534 182.179 146.096 182.693 145.675C182.724 145.654 182.801 145.603 182.893 145.54C183.803 146.366 184.958 146.599 185.726 146.638C189.708 146.836 190.505 143.28 190.505 143.28C190.616 142.808 190.321 142.337 189.851 142.226C189.38 142.116 188.908 142.409 188.798 142.88C188.798 142.88 188.265 145.009 185.814 144.886C185.323 144.862 184.56 144.739 183.997 144.169C183.383 143.547 183.068 142.444 183.375 140.552C183.452 140.075 183.128 139.624 182.649 139.547C182.591 139.537 182.533 139.535 182.477 139.537C182.353 139.256 182.084 139.051 181.758 139.02C181.276 138.974 180.848 139.33 180.803 139.81C180.571 142.289 179.665 143.655 178.485 144.127C176.849 144.783 174.876 143.657 174.401 141.862C174.342 141.634 174.298 141.32 174.266 140.934C174.272 140.857 174.265 140.78 174.249 140.706ZM173.821 155.522L173.938 155.66C174.554 156.386 175.101 157.187 175.483 158.062C175.83 158.863 176.13 159.891 175.648 160.69C175.189 161.453 174.068 161.89 173.335 161.292C172.918 160.952 172.801 160.364 172.737 159.849C172.666 159.27 172.771 158.686 172.901 158.122C173.107 157.224 173.432 156.356 173.821 155.522ZM183.238 124.501C183.727 123.534 184.327 122.886 185.075 122.442L185.088 123.061L184.604 130.584C184.574 131.067 184.157 131.435 183.673 131.403C183.191 131.372 182.824 130.954 182.854 130.472L183.238 124.501Z" fill="#AB494A"/>
<path fill-rule="evenodd" clip-rule="evenodd" d="M178.418 135.078C178.331 135.587 177.465 141.565 193.342 144.935C193.816 145.035 194.286 144.749 194.394 144.278C194.503 143.806 194.209 143.334 193.737 143.226C188.759 142.076 183.591 139.926 181.988 138.555C179.967 136.824 180.145 135.382 180.145 135.382L180.158 135.306C180.28 134.166 180.905 133.321 181.801 132.681C182.819 131.957 184.167 131.489 185.609 131.175C188.084 130.637 190.835 130.567 192.839 130.616C193.044 130.621 193.518 130.641 193.518 130.641L193.581 128.893C193.581 128.893 193.171 128.875 193.002 128.872C190.876 128.815 187.904 128.882 185.237 129.462C181.713 130.227 178.78 131.938 178.418 135.078Z" fill="#AB494A"/>
<path fill-rule="evenodd" clip-rule="evenodd" d="M169.491 102.217L173.511 110.437C173.767 110.958 173.551 111.589 173.029 111.845C172.508 112.099 171.877 111.883 171.623 111.361L167.601 103.141C167.345 102.621 167.56 101.989 168.083 101.735C168.604 101.479 169.235 101.695 169.491 102.217ZM194.98 102.856L190.842 111.247C190.586 111.768 189.953 111.981 189.433 111.724C188.912 111.468 188.698 110.837 188.956 110.316L193.094 101.925C193.351 101.404 193.982 101.19 194.503 101.448C195.024 101.704 195.238 102.335 194.98 102.856ZM181.271 99.6348L181.455 109.11C181.466 109.69 181.005 110.17 180.424 110.181C179.844 110.193 179.364 109.73 179.351 109.15L179.169 99.6769C179.157 99.0965 179.619 98.6161 180.2 98.6038C180.78 98.5933 181.261 99.0544 181.271 99.6348Z" fill="#FFD275"/>
<path fill-rule="evenodd" clip-rule="evenodd" d="M223.976 165.585L224.83 174.069C224.889 174.647 224.467 175.163 223.889 175.222C223.311 175.28 222.795 174.858 222.737 174.281L221.883 165.795C221.825 165.218 222.246 164.701 222.824 164.643C223.402 164.585 223.918 165.008 223.976 165.585ZM213.36 166.349L212.78 173.061C212.73 173.639 212.22 174.067 211.641 174.018C211.063 173.967 210.634 173.457 210.684 172.88L211.264 166.168C211.314 165.59 211.824 165.16 212.403 165.211C212.981 165.26 213.41 165.77 213.36 166.349ZM235.079 163.977L240.116 170.911C240.458 171.381 240.353 172.038 239.884 172.38C239.414 172.72 238.755 172.617 238.414 172.147L233.377 165.215C233.035 164.745 233.14 164.085 233.609 163.745C234.079 163.403 234.737 163.507 235.079 163.977Z" fill="#FFD275"/>
<path fill-rule="evenodd" clip-rule="evenodd" d="M140.02 163.884L139.454 171.063C139.408 171.642 138.902 172.075 138.323 172.029C137.745 171.984 137.312 171.477 137.357 170.899L137.922 163.719C137.967 163.14 138.476 162.707 139.054 162.753C139.633 162.798 140.066 163.305 140.02 163.884ZM129.757 163.908L126.785 170.984C126.56 171.519 125.943 171.772 125.408 171.547C124.872 171.321 124.621 170.704 124.846 170.169L127.817 163.095C128.042 162.558 128.659 162.307 129.194 162.532C129.729 162.756 129.981 163.373 129.757 163.908ZM121.576 161.269L114.869 167.183C114.435 167.567 113.768 167.527 113.384 167.09C113 166.656 113.042 165.989 113.477 165.605L120.184 159.691C120.62 159.308 121.285 159.35 121.669 159.784C122.053 160.219 122.011 160.885 121.576 161.269Z" fill="#FFD275"/>
<path fill-rule="evenodd" clip-rule="evenodd" d="M287.551 60.2788L280.888 45.8804C280.712 45.5006 280.328 45.2613 279.91 45.2704C279.491 45.2797 279.118 45.5359 278.96 45.923L273.558 59.0946L267.423 50.3662C267.173 50.0115 266.732 49.846 266.311 49.9496C265.89 50.0532 265.575 50.4048 265.519 50.8347L263.541 65.9516C263.466 66.5274 263.872 67.0558 264.448 67.1312C265.024 67.2066 265.552 66.8002 265.628 66.2246L267.255 53.7862L272.941 61.8764C273.162 62.1908 273.537 62.3596 273.919 62.3168C274.301 62.2741 274.629 62.0263 274.775 61.6706L279.991 48.9527L286.129 62.216C286.254 62.4855 286.487 62.6896 286.77 62.7783C287.053 62.8669 287.361 62.8314 287.617 62.6808L297.699 56.7508V69.0274C297.699 69.3447 297.842 69.6451 298.089 69.8448C298.335 70.0447 298.659 70.1223 298.969 70.0564L306.255 68.5097L297.913 79.5021C297.562 79.9646 297.653 80.6251 298.115 80.9761C298.578 81.3271 299.238 81.2365 299.589 80.7741L309.641 67.5294C309.906 67.1794 309.926 66.701 309.691 66.33C309.456 65.9588 309.014 65.7731 308.584 65.8645L299.803 67.7286V54.9116C299.803 54.5343 299.601 54.1858 299.273 53.9985C298.946 53.8111 298.543 53.8135 298.218 54.0048L287.551 60.2788Z" fill="#EF7B58"/>
<path fill-rule="evenodd" clip-rule="evenodd" d="M178.513 54.3441L182.106 67.4128L186.769 67.2813L185.583 52.8452L178.513 54.3441ZM214.103 54.3441L209.841 65.3157L214.103 67.4128L219.696 56.7286L214.103 54.3441ZM195.869 49.3632L195.852 64.094H200.738L202.514 50.3161L195.869 49.3632Z" fill="#FFD376"/>
</svg>
