<svg width="220" height="220" viewBox="0 0 220 220" fill="none" xmlns="http://www.w3.org/2000/svg">
<path fill-rule="evenodd" clip-rule="evenodd" d="M117.598 193.821C116.984 193.174 115.96 193.148 115.313 193.762C114.666 194.377 114.642 195.401 115.256 196.048C115.256 196.048 116.445 197.3 117.773 198.697C120.357 201.416 123.94 202.958 127.689 202.967C135.934 202.985 151.923 203.022 159.876 203.04C163.308 203.048 166.731 202.004 169.334 199.77L168.801 199.148C166.346 201.255 163.114 202.228 159.877 202.221L127.69 202.148C124.165 202.14 120.796 200.689 118.366 198.133C117.04 196.736 115.85 195.484 115.85 195.484C115.546 195.164 115.559 194.659 115.877 194.356C116.197 194.053 116.702 194.066 117.005 194.385L117.598 193.821Z" fill="#F61D37"/>
<path fill-rule="evenodd" clip-rule="evenodd" d="M169.325 199.735C169.886 199.254 170.301 198.226 169.618 197.439C169.302 197.077 168.964 196.89 168.586 196.851C168.235 196.815 167.836 196.912 167.368 197.169C166.011 197.917 163.251 199.749 159.868 199.778C151.916 199.845 135.928 199.737 127.685 199.723C124.82 199.718 122.082 198.541 120.109 196.464C118.781 195.068 117.591 193.816 117.591 193.816L116.998 194.381C116.998 194.381 118.188 195.632 119.515 197.028C121.643 199.268 124.595 200.537 127.683 200.542C135.928 200.556 151.921 200.664 159.874 200.597C163.428 200.566 166.338 198.672 167.762 197.886C168.096 197.704 168.359 197.616 168.597 197.684C168.743 197.727 168.871 197.829 168.999 197.977C169.341 198.37 169.071 198.873 168.792 199.114L169.325 199.735Z" fill="#F61D37"/>
<path d="M131.701 210.654C133.585 210.654 135.112 209.127 135.112 207.243C135.112 205.359 133.585 203.832 131.701 203.832C129.818 203.832 128.291 205.359 128.291 207.243C128.291 209.127 129.818 210.654 131.701 210.654Z" fill="#F61D37"/>
<path d="M155.742 210.38C157.626 210.38 159.153 208.853 159.153 206.97C159.153 205.086 157.626 203.559 155.742 203.559C153.859 203.559 152.332 205.086 152.332 206.97C152.332 208.853 153.859 210.38 155.742 210.38Z" fill="#F61D37"/>
<path fill-rule="evenodd" clip-rule="evenodd" d="M176.676 202.914C177.367 201.364 189.863 185.638 188.419 195.607C188.419 195.607 200.67 186.264 205.038 191.203C205.612 191.85 205.538 193.839 204.146 194.979C204.146 194.979 208.651 196.271 208.768 198.755C208.863 200.807 206.342 203.442 201.952 203.435L176.676 202.914Z" fill="#FFD274"/>
<path fill-rule="evenodd" clip-rule="evenodd" d="M113.101 202.736C113.101 202.736 44.7773 203.242 23.3156 202.736C17.4681 202.598 7.62461 199.325 12.1578 189.192C13.0686 187.156 17.4025 179.818 27.5189 181.856C27.5189 181.856 27.6663 174.344 37.1195 174.803C40.5237 174.967 48.2168 179.395 54.9105 185.342C54.9105 185.342 60.3599 176.695 72.3843 185.342C75.8646 187.846 96.2664 200.088 113.101 202.736Z" fill="#FFD274"/>
<path fill-rule="evenodd" clip-rule="evenodd" d="M114.705 196.74C114.705 196.74 102.905 181.236 101.66 191.179C101.66 191.179 97.7456 190.52 97.6036 193.895C97.5503 195.182 98.9948 197.846 114.705 196.74Z" fill="#FFD274"/>
<path fill-rule="evenodd" clip-rule="evenodd" d="M166.174 19.9734L167.99 26.3192L169.704 25.9953L168.54 19.3359L166.174 19.9734Z" fill="#F61D37"/>
<path fill-rule="evenodd" clip-rule="evenodd" d="M178.176 19.8367L176.282 25.9899L178.471 26.6013L181.048 20.6661L178.176 19.8367Z" fill="#F61D37"/>
<path fill-rule="evenodd" clip-rule="evenodd" d="M182.656 29.0213L183.947 31L189.628 28.1392L187.614 25.4373L182.656 29.0213Z" fill="#F61D37"/>
<path fill-rule="evenodd" clip-rule="evenodd" d="M41.9237 124.47L43.6897 158.232L36.0178 158.374C36.0178 158.374 34.7436 162.813 31.7627 163.635V124.657L41.9237 124.47Z" fill="black"/>
<path fill-rule="evenodd" clip-rule="evenodd" d="M37.5497 160.176C37.474 159.979 37.5614 159.754 37.7549 159.661C37.9587 159.563 38.2036 159.649 38.3014 159.854C38.3287 159.91 38.3559 160 38.3684 160.12C38.384 160.272 38.3823 160.51 38.3717 160.809C38.3399 161.702 38.2318 163.191 38.446 164.346C38.5101 164.691 38.6023 165.005 38.7428 165.254C38.8519 165.446 38.9881 165.596 39.1765 165.666C39.3458 165.727 39.5494 165.722 39.7942 165.655C40.0122 165.595 40.2378 165.723 40.2979 165.942C40.3578 166.159 40.2296 166.385 40.0116 166.445C39.4111 166.611 38.947 166.519 38.5863 166.278C38.0965 165.951 37.7895 165.297 37.6406 164.494C37.4154 163.282 37.5196 161.719 37.5531 160.781C37.5628 160.505 37.551 160.211 37.5497 160.176Z" fill="black"/>
<path fill-rule="evenodd" clip-rule="evenodd" d="M38.7765 161.454C38.3968 161.11 38.0077 160.757 37.6878 160.359C37.6808 160.351 37.5937 160.231 37.5575 160.163C37.5159 160.084 37.5039 160.014 37.501 159.976C37.4921 159.856 37.5315 159.767 37.5757 159.704C37.6324 159.625 37.7105 159.566 37.817 159.541C37.9445 159.51 38.143 159.535 38.3501 159.688C38.6909 159.942 39.2229 160.662 39.3174 160.791C39.3435 160.828 39.3726 160.87 39.4041 160.918L39.4691 160.976C39.8743 161.344 40.3376 161.781 40.8459 162.13C41.3058 162.447 41.8018 162.698 42.3284 162.727C42.5541 162.739 42.7275 162.932 42.7152 163.158C42.7029 163.383 42.5098 163.557 42.2841 163.545C41.6014 163.508 40.9498 163.188 40.3545 162.775C40.6546 163.498 40.9014 164.282 40.93 164.915C40.9657 165.707 40.6822 166.287 40.0027 166.474C39.7848 166.535 39.5591 166.406 39.4991 166.188C39.4391 165.969 39.5674 165.744 39.7853 165.684C39.9539 165.638 40.0412 165.516 40.081 165.355C40.1455 165.097 40.1128 164.768 40.0365 164.412C39.805 163.33 39.1414 162.032 38.7765 161.454Z" fill="black"/>
<path fill-rule="evenodd" clip-rule="evenodd" d="M42.2653 163.506C42.7998 163.535 43.1004 163.352 43.2629 163.125C43.4277 162.895 43.4673 162.571 43.3793 162.22C43.2481 161.697 42.8297 161.099 42.5009 160.845C41.3575 159.958 39.7124 159.779 38.3194 159.623C38.0948 159.597 37.8919 159.76 37.8667 159.984C37.8414 160.209 38.0033 160.411 38.2281 160.437C39.48 160.578 40.971 160.694 41.9986 161.492C42.2197 161.663 42.4965 162.067 42.5847 162.419C42.6069 162.508 42.6377 162.59 42.5962 162.649C42.5843 162.665 42.5603 162.668 42.5331 162.675C42.472 162.69 42.3978 162.693 42.3096 162.688C42.0839 162.676 41.8908 162.85 41.8785 163.075C41.8662 163.3 42.0394 163.494 42.2653 163.506Z" fill="black"/>
<path fill-rule="evenodd" clip-rule="evenodd" d="M128.618 189.262L154.136 192.161L153.435 195.68C153.435 195.68 159.79 195.955 159.296 199.133H126.105L128.618 189.262Z" fill="black"/>
<path fill-rule="evenodd" clip-rule="evenodd" d="M156.066 195.084C156.117 195.262 156.039 195.458 155.87 195.552C155.672 195.661 155.423 195.589 155.314 195.391C155.255 195.286 155.222 195.108 155.266 194.892C155.317 194.643 155.467 194.29 155.569 194.071C155.96 193.235 156.403 192.405 157.081 191.763C157.249 191.603 157.612 191.281 157.941 191.176C158.18 191.1 158.408 191.115 158.602 191.231C158.795 191.347 158.86 191.598 158.744 191.792C158.634 191.975 158.404 192.042 158.215 191.952C158.185 191.963 158.098 191.995 158.047 192.027C157.882 192.13 157.73 192.275 157.644 192.357C157.042 192.928 156.659 193.673 156.311 194.417C156.231 194.587 156.091 195.01 156.066 195.084Z" fill="black"/>
<path fill-rule="evenodd" clip-rule="evenodd" d="M158.14 191.908C157.978 191.783 157.931 191.553 158.039 191.373C158.155 191.179 158.406 191.117 158.6 191.233C158.858 191.387 158.973 191.656 158.962 191.974C158.951 192.268 158.82 192.608 158.737 192.785C158.311 193.694 157.524 194.322 156.741 194.908C156.812 194.9 156.864 194.893 156.887 194.892C157.402 194.853 158.061 194.787 158.626 194.574C158.939 194.456 159.223 194.294 159.415 194.051H159.409C159.183 194.03 159.017 193.831 159.037 193.606C159.056 193.382 159.256 193.214 159.481 193.234C159.828 193.264 160.074 193.432 160.192 193.637C160.323 193.862 160.347 194.171 160.097 194.508C159.814 194.89 159.394 195.159 158.916 195.339C158.274 195.583 157.529 195.666 156.946 195.708C156.828 195.716 156.068 195.816 155.731 195.756C155.462 195.709 155.322 195.554 155.273 195.425C155.228 195.308 155.22 195.099 155.403 194.894C155.582 194.692 156.105 194.361 156.176 194.309C156.877 193.784 157.613 193.252 157.994 192.438C158.039 192.343 158.11 192.177 158.136 192.015C158.14 191.984 158.14 191.934 158.14 191.908Z" fill="black"/>
<path fill-rule="evenodd" clip-rule="evenodd" d="M159.422 193.232C158.851 193.181 158.252 193.36 157.737 193.592C157.291 193.796 156.866 194.053 156.446 194.305C156.252 194.421 156.19 194.674 156.306 194.868C156.423 195.061 156.675 195.123 156.869 195.007C157.261 194.771 157.657 194.529 158.076 194.339C158.465 194.163 158.917 194.01 159.35 194.048C159.575 194.068 159.774 193.901 159.793 193.676C159.814 193.45 159.647 193.252 159.422 193.232Z" fill="black"/>
<path fill-rule="evenodd" clip-rule="evenodd" d="M140.289 135.572C98.1792 104.314 110.739 78.0656 110.739 78.0656C110.868 77.7932 111.195 77.677 111.466 77.8062C111.739 77.9355 111.855 78.2614 111.726 78.5337C111.726 78.5337 99.6551 104.203 141.223 134.904C141.396 135.033 141.478 135.251 141.432 135.461L129.645 189.339L128.563 189.219L140.289 135.572Z" fill="#678DDA"/>
<path fill-rule="evenodd" clip-rule="evenodd" d="M132.72 80.9513C132.72 80.9513 151.461 100.765 164.289 114.328C171.371 121.814 173.703 132.616 170.342 142.358C163.626 161.815 153.129 191.992 153.129 191.992L154.108 192.104C154.108 192.104 164.659 162.171 171.374 142.714C174.869 132.588 172.444 121.359 165.084 113.577C152.254 100.014 133.513 80.2007 133.513 80.2007C133.307 79.9818 132.96 79.9722 132.741 80.1793C132.523 80.3864 132.513 80.7323 132.72 80.9513Z" fill="#678DDA"/>
<path fill-rule="evenodd" clip-rule="evenodd" d="M91.7353 122.06L110.249 79.1759C110.369 78.8993 110.69 78.7715 110.967 78.891C111.244 79.0104 111.371 79.3321 111.252 79.6089L92.6036 122.805C92.5204 122.996 92.336 123.125 92.1285 123.134L41.9543 125.577L41.8708 124.408L91.7353 122.06Z" fill="#678DDA"/>
<path fill-rule="evenodd" clip-rule="evenodd" d="M43.6551 158.195C43.6551 158.195 81.0052 157 100.418 156.324C107.62 156.073 114.134 151.976 117.479 145.593L128.343 124.858C128.482 124.592 128.38 124.262 128.112 124.122C127.846 123.982 127.516 124.086 127.375 124.352L116.511 145.085C113.349 151.121 107.19 154.995 100.38 155.232C80.967 155.908 43.6011 157.056 43.6011 157.056L43.6551 158.195Z" fill="#678DDA"/>
<path fill-rule="evenodd" clip-rule="evenodd" d="M140.22 138.812L140.911 139.165C140.911 139.165 145.149 140.816 147.832 140.353C148.12 140.302 148.347 140.077 148.399 139.789C148.45 139.501 148.317 139.212 148.065 139.063C145.764 137.706 140.911 134.851 140.911 134.851C140.911 134.851 140.477 138.979 140.22 138.812Z" fill="#6A8FDB"/>
<path fill-rule="evenodd" clip-rule="evenodd" d="M155.616 187.162C155.371 187.934 155.148 188.642 154.947 189.275C154.791 189.315 154.641 189.356 154.496 189.396C152.552 189.933 151.599 190.593 150.787 191.746L148.784 191.518C149.738 189.845 151.038 188.367 153.988 187.553C154.476 187.419 155.022 187.278 155.616 187.162ZM133.215 184.261C134.19 184.261 134.981 185.065 134.981 186.055C134.981 187.045 134.19 187.848 133.215 187.848C132.241 187.848 131.45 187.045 131.45 186.055C131.45 185.065 132.241 184.261 133.215 184.261ZM149.301 182.318C149.301 182.318 145.955 185.418 141.714 183.953C139.695 183.254 136.517 182.012 135.095 178.188C134.911 177.694 134.361 177.441 133.867 177.624C133.372 177.809 133.12 178.359 133.303 178.853C134.988 183.389 138.696 184.931 141.09 185.759C146.403 187.595 150.598 183.722 150.598 183.722C150.986 183.364 151.009 182.758 150.652 182.372C150.294 181.984 149.688 181.961 149.301 182.318ZM152.667 158.507C152.667 158.507 156.248 161.332 155.456 165.749C155.079 167.852 154.345 171.184 150.787 173.18C150.327 173.438 150.163 174.021 150.419 174.481C150.679 174.942 151.262 175.105 151.721 174.847C155.941 172.481 156.89 168.579 157.337 166.086C158.33 160.553 153.853 157.007 153.853 157.007C153.44 156.681 152.837 156.75 152.511 157.164C152.183 157.578 152.253 158.18 152.667 158.507ZM135.307 159.656C136.743 160.211 138.249 161.181 139.436 162.853C140.899 164.92 143.017 168.334 141.746 173.002C141.608 173.509 141.082 173.811 140.573 173.672C140.064 173.534 139.763 173.008 139.901 172.499C140.973 168.562 139.111 165.703 137.875 163.958C137.011 162.739 135.932 161.989 134.878 161.532L135.307 159.656ZM148.082 164.303C149.056 164.303 149.847 165.107 149.847 166.096C149.847 167.086 149.056 167.89 148.082 167.89C147.107 167.89 146.315 167.086 146.315 166.096C146.315 165.107 147.107 164.303 148.082 164.303ZM163.294 163.408C162.549 163.197 162.001 162.502 162.001 161.679C162.001 160.689 162.792 159.886 163.767 159.886C164.001 159.886 164.227 159.933 164.433 160.017C164.066 161.1 163.685 162.235 163.294 163.408ZM145.387 159.437C145.387 159.437 143.238 155.414 145.732 151.685C146.92 149.909 148.929 147.148 152.989 146.745C153.513 146.692 153.897 146.224 153.845 145.7C153.793 145.174 153.325 144.79 152.799 144.842C147.985 145.321 145.552 148.516 144.143 150.621C141.018 155.295 143.701 160.336 143.701 160.336C143.948 160.801 144.528 160.977 144.994 160.73C145.459 160.482 145.635 159.903 145.387 159.437ZM53.7747 157.396C52.3182 156.215 50.929 154.455 49.7521 151.884C49.5326 151.405 49.7436 150.837 50.2233 150.617C50.7029 150.399 51.2706 150.609 51.4901 151.088C52.9909 154.368 54.8414 156.15 56.7375 157.003C56.9607 157.103 57.1841 157.19 57.4072 157.266L55.4027 157.337L53.7747 157.396ZM63.4096 157.051C64.6972 156.593 65.5225 156.051 65.5225 156.051C65.965 155.765 66.5574 155.89 66.8446 156.333C66.9622 156.514 67.0106 156.72 66.9961 156.921L64.5895 157.008L63.4096 157.051ZM91.3389 156.012C91.1982 155.851 91.0603 155.684 90.9279 155.509C89.4547 153.573 88.4649 150.728 88.7516 146.52C88.7871 145.993 89.2445 145.596 89.7701 145.631C90.2971 145.667 90.6944 146.124 90.6589 146.65C90.4132 150.247 91.1887 152.697 92.4488 154.35C92.9253 154.977 93.4674 155.487 94.0408 155.904C93.1766 155.939 92.2754 155.975 91.3389 156.012ZM164.714 154.29C164.714 154.29 161.977 150.642 163.873 146.576C164.776 144.639 166.338 141.605 170.289 140.587C170.799 140.454 171.108 139.933 170.975 139.422C170.844 138.911 170.323 138.604 169.812 138.735C165.126 139.943 163.211 143.471 162.141 145.768C159.765 150.863 163.185 155.436 163.185 155.436C163.502 155.857 164.101 155.943 164.523 155.628C164.945 155.311 165.031 154.712 164.714 154.29ZM81.0636 141.83C81.0636 141.83 82.3907 146.965 79.1398 150.455C77.7227 151.977 75.4401 153.155 71.8533 153.523C71.3285 153.577 70.9462 154.047 70.9998 154.571C71.0536 155.096 71.5232 155.479 72.048 155.425C76.2437 154.996 78.8809 153.538 80.538 151.759C84.4618 147.545 82.9163 141.361 82.9163 141.361C82.7866 140.849 82.2664 140.54 81.7545 140.67C81.2438 140.8 80.9339 141.32 81.0636 141.83ZM105.927 145.058C106.894 145.058 107.677 145.842 107.677 146.807C107.677 147.773 106.894 148.557 105.927 148.557C104.962 148.557 104.178 147.773 104.178 146.807C104.178 145.842 104.962 145.058 105.927 145.058ZM42.7816 142.876L42.8359 142.936C45.8427 146.266 50.269 145.166 50.269 145.166C50.781 145.039 51.2995 145.351 51.4265 145.863C51.5533 146.375 51.2407 146.893 50.7287 147.02C50.7287 147.02 46.5105 148.063 42.9324 145.559L42.7816 142.876ZM60.2173 143.435C61.1918 143.435 61.9829 144.239 61.9829 145.229C61.9829 146.218 61.1918 147.021 60.2173 147.021C59.2428 147.021 58.4516 146.218 58.4516 145.229C58.4516 144.239 59.2428 143.435 60.2173 143.435ZM96.3645 145.452C96.3645 145.452 96.8274 140.17 101.057 137.965C102.9 137.004 105.446 136.653 108.95 137.505C109.462 137.629 109.979 137.314 110.104 136.802C110.229 136.289 109.914 135.772 109.4 135.647C105.302 134.652 102.33 135.146 100.174 136.269C95.0689 138.93 94.4613 145.278 94.4613 145.278C94.4135 145.802 94.7999 146.268 95.3255 146.317C95.8512 146.364 96.3167 145.978 96.3645 145.452ZM142.275 142.701C143.25 142.701 144.042 143.504 144.042 144.494C144.042 145.484 143.25 146.288 142.275 146.288C141.302 146.288 140.51 145.484 140.51 144.494C140.51 143.504 141.302 142.701 142.275 142.701ZM56.8551 140.806C56.8551 140.806 59.9538 137.46 64.2935 138.596C66.3607 139.137 69.6257 140.131 71.3356 143.836C71.5566 144.315 72.125 144.524 72.6039 144.303C73.0828 144.082 73.2922 143.514 73.0711 143.035C71.0437 138.642 67.2288 137.389 64.7778 136.747C59.3395 135.323 55.4536 139.507 55.4536 139.507C55.0949 139.893 55.1177 140.499 55.5045 140.857C55.8913 141.216 56.4964 141.193 56.8551 140.806ZM120.357 138.996C120.405 137.904 120.264 136.934 119.988 136.074C118.532 131.533 113.403 130.183 113.403 130.183C112.894 130.046 112.591 129.522 112.728 129.012C112.866 128.502 113.39 128.201 113.899 128.337C113.899 128.337 120.051 130.01 121.808 135.491C121.857 135.643 121.902 135.796 121.945 135.953L120.357 138.996ZM89.7346 130.43C89.7346 130.43 87.3085 134.291 82.833 133.977C80.7018 133.827 77.3093 133.454 74.9442 130.128C74.6385 129.698 74.0413 129.599 73.6115 129.904C73.1817 130.209 73.081 130.807 73.3867 131.237C76.191 135.179 80.1721 135.706 82.6992 135.883C88.3065 136.278 91.3525 131.447 91.3525 131.447C91.6338 131.002 91.5 130.411 91.0535 130.13C90.6071 129.848 90.0159 129.984 89.7346 130.43ZM160.486 132.246C161.461 132.246 162.253 133.05 162.253 134.04C162.253 135.03 161.461 135.833 160.486 135.833C159.512 135.833 158.721 135.03 158.721 134.04C158.721 133.05 159.512 132.246 160.486 132.246ZM149.211 133.936C149.211 133.936 148.711 129.402 152.413 126.868C154.177 125.66 157.066 123.844 160.986 124.978C161.492 125.126 162.022 124.834 162.169 124.327C162.315 123.821 162.023 123.29 161.517 123.143C156.869 121.797 153.425 123.859 151.333 125.291C146.695 128.467 147.311 134.144 147.311 134.144C147.368 134.668 147.84 135.046 148.365 134.99C148.889 134.933 149.269 134.46 149.211 133.936ZM61.4224 123.937C62.486 125.742 63.2687 128.089 62.8012 131.062C62.7193 131.584 62.2298 131.94 61.7087 131.858C61.1876 131.776 60.8311 131.286 60.913 130.766C61.3726 127.841 60.3601 125.65 59.2277 124.058L61.4224 123.937ZM106.562 129.728C106.562 129.728 102.01 129.436 100.155 125.353C99.2699 123.407 97.981 120.246 99.7764 116.583C100.009 116.109 99.8133 115.536 99.3395 115.304C98.8658 115.072 98.2923 115.268 98.0602 115.741C95.9317 120.085 97.3653 123.836 98.4138 126.143C100.74 131.26 106.438 131.636 106.438 131.636C106.963 131.67 107.419 131.271 107.453 130.744C107.488 130.218 107.089 129.764 106.562 129.728ZM137.557 127.327C138.532 127.327 139.322 128.131 139.322 129.121C139.322 130.111 138.532 130.913 137.557 130.913C136.584 130.913 135.792 130.111 135.792 129.121C135.792 128.131 136.584 127.327 137.557 127.327ZM45.5542 127.096C46.5286 127.096 47.3198 127.9 47.3198 128.889C47.3198 129.878 46.5286 130.683 45.5542 130.683C44.5797 130.683 43.7885 129.878 43.7885 128.889C43.7885 127.9 44.5797 127.096 45.5542 127.096ZM82.3552 126.06C83.3286 126.06 84.1205 126.863 84.1205 127.852C84.1205 128.842 83.3286 129.646 82.3552 129.646C81.3804 129.646 80.5885 128.842 80.5885 127.852C80.5885 126.863 81.3804 126.06 82.3552 126.06ZM125.324 129.474C124.8 129.171 124.446 128.606 124.446 127.958C124.446 126.991 125.23 126.207 126.196 126.207C126.461 126.207 126.714 126.267 126.94 126.374L125.324 129.474ZM125.798 122.155C126.558 121.597 127.462 121.121 128.534 120.803C130.963 120.082 134.874 119.177 138.885 121.883C139.322 122.178 139.437 122.773 139.142 123.21C138.847 123.647 138.253 123.763 137.815 123.468C134.433 121.186 131.126 122.027 129.077 122.636C128.334 122.855 127.693 123.172 127.138 123.543L125.798 122.155ZM121.206 117.128C121.623 117.674 122.054 118.219 122.473 118.714C121.721 119.882 120.627 121.015 119.039 121.833C116.787 122.992 113.11 124.608 108.667 122.693C108.183 122.484 107.959 121.922 108.168 121.437C108.376 120.952 108.939 120.73 109.424 120.938C113.171 122.552 116.264 121.111 118.164 120.133C119.665 119.36 120.611 118.234 121.206 117.128ZM144.262 101.453C144.262 101.453 148.048 103.996 147.597 108.46C147.383 110.585 146.907 113.966 143.511 116.228C143.073 116.52 142.954 117.114 143.246 117.554C143.538 117.992 144.132 118.111 144.572 117.819C148.598 115.136 149.245 111.173 149.499 108.652C150.064 103.059 145.328 99.8674 145.328 99.8674C144.891 99.5731 144.297 99.6892 144.003 100.127C143.708 100.565 143.824 101.159 144.262 101.453ZM111.741 111.742C112.715 111.742 113.507 112.545 113.507 113.534C113.507 114.524 112.715 115.328 111.741 115.328C110.767 115.328 109.975 114.524 109.975 113.534C109.975 112.545 110.767 111.742 111.741 111.742ZM157.54 109.744C158.513 109.744 159.305 110.549 159.305 111.538C159.305 112.528 158.513 113.331 157.54 113.331C156.565 113.331 155.773 112.528 155.773 111.538C155.773 110.549 156.565 109.744 157.54 109.744ZM137.276 109.007C138.249 109.007 139.041 109.811 139.041 110.801C139.041 111.791 138.249 112.595 137.276 112.595C136.301 112.595 135.509 111.791 135.509 110.801C135.509 109.811 136.301 109.007 137.276 109.007ZM103.942 95.499C105.573 96.4768 107.475 98.1821 108.252 101.029C108.918 103.473 109.736 107.404 106.94 111.353C106.636 111.784 106.039 111.887 105.608 111.581C105.178 111.276 105.075 110.68 105.381 110.25C107.739 106.918 106.97 103.593 106.408 101.532C105.821 99.3777 104.424 98.0441 103.169 97.2479L103.942 95.499ZM122.203 109.682C122.203 109.682 121.9 105.131 125.706 102.759C127.519 101.629 130.485 99.9385 134.351 101.241C134.852 101.41 135.394 101.141 135.562 100.641C135.732 100.141 135.463 99.5984 134.962 99.4301C130.377 97.8853 126.846 99.7964 124.696 101.136C119.924 104.11 120.296 109.807 120.296 109.807C120.33 110.334 120.786 110.733 121.311 110.699C121.838 110.665 122.237 110.209 122.203 109.682ZM115.428 103.776C116.403 103.776 117.195 104.58 117.195 105.569C117.195 106.559 116.403 107.363 115.428 107.363C114.455 107.363 113.663 106.559 113.663 105.569C113.663 104.58 114.455 103.776 115.428 103.776ZM113.309 81.4797C113.309 81.4797 117.549 83.1642 118.052 87.622C118.291 89.7453 118.541 93.149 115.701 96.079C115.334 96.4578 115.344 97.0634 115.722 97.4305C116.101 97.7976 116.706 97.7881 117.073 97.4093C120.442 93.9353 120.235 89.9252 119.951 87.4074C119.319 81.8214 114.016 79.7041 114.016 79.7041C113.526 79.5089 112.971 79.7482 112.775 80.2382C112.58 80.7282 112.819 81.2844 113.309 81.4797ZM125.634 88.668C126.609 88.668 127.399 89.4716 127.399 90.4613C127.399 91.4512 126.609 92.2546 125.634 92.2546C124.659 92.2546 123.868 91.4512 123.868 90.4613C123.868 89.4716 124.659 88.668 125.634 88.668ZM128.13 75.1582L129.397 76.504C128.097 80.2586 129.679 83.2076 130.746 85.0237C133.019 88.8915 137.576 88.7066 137.576 88.7066C138.103 88.6857 138.548 89.0967 138.569 89.6238C138.591 90.1508 138.18 90.5957 137.651 90.6165C137.651 90.6165 131.946 90.8388 129.098 85.9921C127.814 83.8077 125.996 80.2277 127.659 75.6845C127.746 75.4462 127.919 75.2633 128.13 75.1582Z" fill="#668CDA"/>
<path fill-rule="evenodd" clip-rule="evenodd" d="M109.714 42.7189C109.714 42.7189 118.575 39.0597 136.168 45.2598L134.691 47.1779L109.714 42.7189Z" fill="black"/>
<path fill-rule="evenodd" clip-rule="evenodd" d="M143.318 9.41005C143.408 9.30028 140.936 33.0744 140.936 33.0744L108.895 35.5347L110.396 12.2858C110.396 12.2858 143.228 9.51982 143.318 9.41005Z" fill="white"/>
<path fill-rule="evenodd" clip-rule="evenodd" d="M140.596 32.6918L142.943 9.36854C142.966 9.14367 143.166 8.97943 143.392 9.00209C143.617 9.02475 143.781 9.22573 143.759 9.45059L141.375 33.1151C141.356 33.3124 141.198 33.4672 141 33.4823L108.971 35.9426C108.746 35.9599 108.548 35.7911 108.532 35.5656C108.514 35.3402 108.683 35.1432 108.908 35.1259L140.596 32.6918Z" fill="#69BAC9"/>
<path fill-rule="evenodd" clip-rule="evenodd" d="M110.819 12.6231L110.464 18.1512L109.349 35.5604C109.335 35.786 109.14 35.9575 108.915 35.943C108.688 35.9285 108.517 35.7337 108.531 35.508L109.646 18.0989L110.025 12.219C110.037 12.0168 110.195 11.8545 110.397 11.8371L143.316 9.00153C143.541 8.98214 143.741 9.14925 143.76 9.37439C143.779 9.59967 143.612 9.79832 143.387 9.81771L110.819 12.6231Z" fill="#69BAC9"/>
<path fill-rule="evenodd" clip-rule="evenodd" d="M159.295 24.9412L136.994 11.322L128.565 26.6804L150.289 38.5921L159.295 24.9412Z" fill="white"/>
<path fill-rule="evenodd" clip-rule="evenodd" d="M150.077 37.876L158.933 24.7074C159.058 24.5198 159.314 24.4699 159.501 24.596C159.689 24.7222 159.738 24.9769 159.613 25.1645L150.548 38.6424C150.431 38.8177 150.199 38.8746 150.013 38.7737L128.323 26.9927C128.125 26.8848 128.051 26.6359 128.159 26.4373C128.267 26.2386 128.515 26.165 128.715 26.2729L150.077 37.876Z" fill="#69BAC9"/>
<path fill-rule="evenodd" clip-rule="evenodd" d="M137.125 11.8946L128.877 26.8357C128.768 27.0337 128.518 27.1057 128.321 26.9964C128.123 26.8872 128.051 26.6378 128.16 26.4399L136.614 11.124C136.667 11.0261 136.759 10.9546 136.867 10.926C136.976 10.8974 137.091 10.9142 137.186 10.9723L159.486 24.5913C159.678 24.7092 159.74 24.9615 159.622 25.1544C159.503 25.3473 159.252 25.4083 159.058 25.2905L137.125 11.8946Z" fill="#69BAC9"/>
<path fill-rule="evenodd" clip-rule="evenodd" d="M90.2263 28.3202L115.445 15.238L125.463 33.0418L99.0707 46.391L90.2263 28.3202Z" fill="white"/>
<path fill-rule="evenodd" clip-rule="evenodd" d="M124.945 33.1474L115.073 15.427C114.962 15.2297 115.034 14.9797 115.231 14.8697C115.429 14.7598 115.679 14.8307 115.788 15.0285L125.87 33.1248C125.925 33.2226 125.937 33.3386 125.903 33.446C125.871 33.5529 125.794 33.642 125.694 33.6915L98.9041 46.9165C98.7011 47.0167 98.4551 46.9335 98.3549 46.7309C98.2546 46.5282 98.3379 46.2824 98.5409 46.1822L124.945 33.1474Z" fill="#69BAC9"/>
<path fill-rule="evenodd" clip-rule="evenodd" d="M90.7312 28.4915L99.0765 46.3752C99.1728 46.5797 99.084 46.8237 98.879 46.9194C98.6741 47.015 98.4304 46.9262 98.3341 46.7216L89.8224 28.4822C89.73 28.2831 89.8108 28.0463 90.0056 27.9452L115.224 14.8632C115.426 14.7589 115.673 14.8374 115.777 15.038C115.881 15.2388 115.803 15.486 115.602 15.5904L90.7312 28.4915Z" fill="#69BAC9"/>
<path d="M140.042 33.1515L137.58 31.7207L128.401 47.5186L130.863 48.9494L140.042 33.1515Z" fill="#69BAC9"/>
<path d="M113.219 39.5084L110.716 40.7815L118.998 57.0677L121.501 55.7946L113.219 39.5084Z" fill="#69BAC9"/>
<path d="M126.301 34.4805L123.647 34.498L123.783 52.7685L126.437 52.751L126.301 34.4805Z" fill="#69BAC9"/>
<path fill-rule="evenodd" clip-rule="evenodd" d="M135.52 46.2037L109.709 42.7393C109.709 42.7393 93.2911 52.3231 95.537 64.1447C97.5385 74.6835 111.395 76.9025 111.395 76.9025L135.52 46.2037Z" fill="#3768BE"/>
<path fill-rule="evenodd" clip-rule="evenodd" d="M99.5207 44.7228C99.6125 45.1956 99.9979 45.4868 100.511 45.6288C101.129 45.7997 101.934 45.7554 102.356 45.7212C104.86 45.5173 110.046 43.343 110.046 43.343C110.206 43.2759 110.28 43.0916 110.214 42.9318C110.146 42.772 109.963 42.697 109.803 42.7641C109.803 42.7641 104.747 44.8963 102.304 45.0953C101.934 45.1255 101.223 45.1741 100.678 45.0235C100.417 44.951 100.184 44.8445 100.137 44.6032C100.104 44.433 99.9394 44.3217 99.7693 44.3547C99.5992 44.3877 99.4875 44.5526 99.5207 44.7228Z" fill="#3768BE"/>
<path fill-rule="evenodd" clip-rule="evenodd" d="M109.977 42.7638C107.417 42.4395 104.521 42.174 101.972 42.8008C101.549 42.9047 100.725 43.1379 100.172 43.5166C99.7107 43.8328 99.4382 44.252 99.5339 44.7446C99.5671 44.9147 99.7319 45.0261 99.9021 44.9931C100.072 44.9601 100.184 44.7952 100.151 44.625C100.103 44.3758 100.294 44.1946 100.527 44.0347C101.016 43.6999 101.748 43.5025 102.122 43.4107C104.598 42.8018 107.412 43.0718 109.897 43.3869C110.07 43.4087 110.227 43.2868 110.249 43.1149C110.271 42.9429 110.148 42.7857 109.977 42.7638Z" fill="#3768BE"/>
<path fill-rule="evenodd" clip-rule="evenodd" d="M109.541 42.8217C109.555 42.8026 109.572 42.7846 109.591 42.7686C109.722 42.6563 109.921 42.6724 110.034 42.8045C110.105 42.8877 110.171 43.0332 110.043 43.2083C110.024 43.2353 109.983 43.2782 109.923 43.3231C109.809 43.4081 109.58 43.5425 109.525 43.575C109.026 43.8754 108.523 44.168 108.018 44.4576C106.656 45.2378 105.297 46.0251 103.946 46.8255C100.026 49.1487 96.0823 51.5288 92.4627 54.3136C92.3249 54.4193 92.1269 54.3935 92.0212 54.2562C91.9156 54.1188 91.9423 53.9214 92.0788 53.8158C95.7198 51.0156 99.6831 48.6213 103.625 46.2851C104.979 45.4833 106.34 44.6944 107.706 43.9126C108.206 43.6253 108.707 43.335 109.202 43.0369C109.244 43.0116 109.47 42.8668 109.541 42.8217ZM109.484 43.0581C109.492 43.1164 109.517 43.167 109.555 43.2111C109.516 43.1659 109.493 43.1128 109.484 43.0581Z" fill="#3768BE"/>
<path fill-rule="evenodd" clip-rule="evenodd" d="M109.847 42.8697C108.677 43.518 107.518 44.5116 106.39 45.2827C103.26 47.4237 100.224 49.6732 97.2252 51.9943C94.4789 54.1193 91.4514 55.9426 88.8727 58.2767C88.7443 58.393 88.7335 58.5917 88.8511 58.7201C88.966 58.8487 89.1662 58.8586 89.2946 58.7422C91.8611 56.419 94.8765 54.6062 97.6093 52.4909C100.599 50.1774 103.625 47.9351 106.746 45.8012C107.858 45.0407 108.999 44.0582 110.151 43.4189C110.302 43.3349 110.358 43.1436 110.274 42.992C110.189 42.8406 109.998 42.7857 109.847 42.8697Z" fill="#3768BE"/>
<path d="M91.9876 54.9522C92.4071 54.9522 92.7471 54.6135 92.7471 54.1958C92.7471 53.7781 92.4071 53.4395 91.9876 53.4395C91.5681 53.4395 91.228 53.7781 91.228 54.1958C91.228 54.6135 91.5681 54.9522 91.9876 54.9522Z" fill="#3768BE"/>
<path d="M88.9824 59.2776C89.4019 59.2776 89.742 58.939 89.742 58.5212C89.742 58.1035 89.4019 57.7649 88.9824 57.7649C88.563 57.7649 88.2229 58.1035 88.2229 58.5212C88.2229 58.939 88.563 59.2776 88.9824 59.2776Z" fill="#3768BE"/>
<path fill-rule="evenodd" clip-rule="evenodd" d="M110.618 44.2346C110.595 44.2845 110.526 44.4304 110.517 44.4466C110.328 44.8053 110.16 45.1765 110.003 45.5503C109.567 46.5914 109.193 47.7207 109.257 48.8638C109.267 49.0557 109.284 49.288 109.338 49.507C109.38 49.6825 109.443 49.8521 109.566 49.9639C109.694 50.0807 109.704 50.2794 109.586 50.4075C109.47 50.5356 109.271 50.5449 109.142 50.4281C108.752 50.0725 108.656 49.3882 108.629 48.899C108.561 47.6609 108.951 46.4348 109.424 45.3073C109.588 44.9164 109.764 44.5284 109.962 44.1535C109.971 44.1355 110.016 44.0253 110.059 43.9455C110.097 43.874 110.141 43.818 110.169 43.79C110.243 43.7194 110.321 43.6999 110.379 43.6962C110.551 43.6849 110.702 43.8162 110.713 43.9892C110.719 44.0845 110.683 44.1727 110.618 44.2346Z" fill="white"/>
<path fill-rule="evenodd" clip-rule="evenodd" d="M109.635 50.0082C109.647 49.9995 109.673 49.9813 109.688 49.9662C109.715 49.9393 109.741 49.9073 109.766 49.8722C110.01 49.5291 110.174 48.9317 110.216 48.7647C110.625 47.1742 110.524 45.4389 110.256 43.8335C110.227 43.6626 110.343 43.5006 110.514 43.4721C110.686 43.4436 110.847 43.5592 110.876 43.7303C111.157 45.4202 111.254 47.2469 110.824 48.921C110.764 49.1599 110.474 50.1061 110.091 50.4499C109.958 50.5689 109.811 50.6327 109.663 50.6401C109.51 50.6474 109.345 50.5996 109.179 50.4488C109.05 50.3319 109.042 50.1333 109.158 50.0051C109.276 49.877 109.474 49.8679 109.602 49.9846C109.612 49.993 109.625 50.0026 109.635 50.0082Z" fill="white"/>
<path fill-rule="evenodd" clip-rule="evenodd" d="M111.808 56.7705L118.18 76.0873L125.868 73.5735L132.763 80.8859L136.06 78.3715L140.566 83.6998L157.224 68.5121C157.224 68.5121 150.526 57.8989 145.792 50.397C143.168 46.2387 137.864 44.6754 133.405 46.7458C124.695 50.7882 111.808 56.7705 111.808 56.7705Z" fill="#FFD274"/>
<path fill-rule="evenodd" clip-rule="evenodd" d="M144.779 62.4789C144.558 62.7246 144.336 62.9724 144.08 63.1799C143.187 63.9032 142.299 64.6401 141.337 65.267C137.899 67.5064 134.883 69.1666 131.264 70.9446C129.535 71.7941 127.781 72.5929 126.036 73.4088C125.968 73.4407 125.832 73.5316 125.832 73.5316L126.634 74.5116C126.634 74.5116 126.807 74.4306 126.893 74.3902C128.642 73.5694 130.399 72.7631 132.132 71.9059C135.796 70.0927 138.844 68.3956 142.313 66.0989C143.564 65.2706 144.926 64.4615 145.778 63.2262C146.235 62.5643 145.263 61.8299 144.779 62.4789Z" fill="#E64B4D"/>
<path fill-rule="evenodd" clip-rule="evenodd" d="M146.609 56.038C146.609 56.038 148.528 66.3011 136.37 78.0899C136.288 78.1692 136.122 78.328 136.122 78.328L136.895 79.3159C136.895 79.3159 137.088 79.1312 137.183 79.039C149.979 66.63 147.478 55.1179 147.478 55.1179C147.407 54.7808 147.075 54.5652 146.738 54.6368C146.4 54.7083 146.538 55.7009 146.609 56.038Z" fill="#E64B4D"/>
<path fill-rule="evenodd" clip-rule="evenodd" d="M146.128 50.9805C146.128 50.9805 147.68 59.8919 141.828 66.5777C138.836 69.9973 133.989 72.9445 125.832 73.5916L128.388 76.4564C128.388 76.4564 151.092 72.4702 147.075 52.2453C146.885 51.2848 146.541 51.1229 146.128 50.9805Z" fill="#3768BE"/>
<path fill-rule="evenodd" clip-rule="evenodd" d="M140.494 83.6754C140.494 83.6754 143.845 87.1835 147.074 90.5632C150.668 94.3227 156.121 95.6432 161.036 93.9434V93.9433C167.507 91.705 172.298 86.1912 173.61 79.4708C176.635 64.1146 179.398 49.4787 181.283 33.2185C181.35 32.6365 181.028 32.0791 180.49 31.8467C179.913 31.6013 179.166 31.5646 178.607 32.5332C178.607 32.5332 177.306 29.6468 175.239 31.3737C175.239 31.3737 173.717 28.8666 171.812 30.729C171.812 30.729 169.686 27.9675 168.125 31.3701C168.125 31.3701 164.878 30.071 163.655 36.5817L157.096 68.4654L140.494 83.6754Z" fill="#A62B2A"/>
<path fill-rule="evenodd" clip-rule="evenodd" d="M153.513 83.9566L157.092 68.4197L156.039 69.4128L152.613 83.7852C152.567 84.0334 152.73 84.2733 152.978 84.3207C153.226 84.368 153.466 84.2048 153.513 83.9566Z" fill="black"/>
<path d="M170.74 38.687C170.671 38.7405 170.892 39.0745 170.915 39.1221C171.149 39.5968 171.377 40.0754 171.599 40.5553C171.788 40.962 171.962 41.3753 172.115 41.7965C172.227 42.1007 172.33 42.408 172.427 42.7172C172.511 42.9885 172.588 43.2623 172.655 43.5383C172.858 44.3739 173.198 46.3619 172.025 46.7532C171.637 46.8824 171.344 46.5914 171.247 46.2366C171.093 45.6733 171.325 45.0623 171.636 44.5952C172.453 43.3704 174.103 42.8281 175.507 42.7571" stroke="black" stroke-width="0.00219619" stroke-miterlimit="2.28659" stroke-linecap="round" stroke-linejoin="round"/>
<path fill-rule="evenodd" clip-rule="evenodd" d="M168.124 31.3626C168.124 31.3626 170.552 32.6958 172.095 34.3238C172.457 34.7133 172.568 35.2784 172.378 35.7792C172.188 36.2801 171.731 36.6303 171.198 36.6829C171.063 36.6934 170.91 36.705 170.748 36.715C169.867 36.77 168.215 36.5765 166.463 36.3062C166.241 36.2717 166.031 36.4251 165.996 36.6485C165.962 36.8719 166.115 37.0813 166.339 37.1158C168.162 37.3972 169.883 37.5899 170.8 37.5327C170.966 37.5223 171.122 37.5104 171.271 37.4988C171.273 37.4987 171.276 37.4984 171.279 37.4981C172.121 37.415 172.845 36.8613 173.144 36.0693C173.444 35.2773 173.269 34.3837 172.692 33.7633C171.501 32.5059 169.498 31.3808 168.526 30.8731C168.481 30.8498 168.421 30.8101 168.421 30.8101C168.297 30.9977 168.124 31.3626 168.124 31.3626Z" fill="#DE735A"/>
<path fill-rule="evenodd" clip-rule="evenodd" d="M167.426 37.023C167.426 37.023 167.25 38.0427 167.464 38.9438C167.63 39.6422 168.024 40.2578 168.791 40.4413C169.194 40.5375 170.608 40.7026 171.272 37.3341C171.315 37.1123 171.171 36.8968 170.95 36.8531C170.728 36.8095 170.513 36.954 170.469 37.1759C170.257 38.2466 169.984 38.8891 169.699 39.2647C169.4 39.659 169.116 39.6767 168.982 39.6445C168.542 39.5395 168.357 39.1538 168.261 38.7539C168.084 38.0079 168.233 37.1633 168.233 37.1633C168.271 36.9407 168.122 36.7284 167.898 36.6897C167.676 36.6509 167.464 36.8003 167.426 37.023Z" fill="#DE735A"/>
<path fill-rule="evenodd" clip-rule="evenodd" d="M172.09 33.1743C172.181 32.4006 172.265 31.5419 172.337 30.5891C172.344 30.5152 172.329 30.4444 172.299 30.3818C172.295 30.3729 172.293 30.3504 172.285 30.3555C172.097 30.4669 171.844 30.7132 171.844 30.7132C171.845 30.7084 171.557 30.3875 171.553 30.3978C171.536 30.4386 171.525 30.4805 171.521 30.5271C171.45 31.4671 171.368 32.3141 171.276 33.0775C171.25 33.3021 171.41 33.5059 171.635 33.5327C171.859 33.5593 172.063 33.3987 172.09 33.1743Z" fill="#DE735A"/>
<path fill-rule="evenodd" clip-rule="evenodd" d="M170.835 37.1231C170.785 38.2232 170.841 39.1979 171.071 39.8377C171.275 40.4013 171.617 40.7391 172.076 40.8254C172.334 40.8742 172.734 40.9686 173.194 40.7613C173.609 40.5737 174.108 40.1184 174.553 39.0005C175.074 37.6932 175.567 35.3894 175.862 31.3607C175.872 31.2382 175.862 30.9922 175.862 30.9922C175.676 31.0559 175.481 31.1973 175.282 31.3601C175.212 31.2528 175.14 31.1553 175.061 31.073C175.061 31.073 175.048 31.2668 175.046 31.3009C174.76 35.1999 174.296 37.4319 173.792 38.6971C173.469 39.5091 173.159 39.8784 172.857 40.0146C172.599 40.1312 172.372 40.0478 172.228 40.0204C172.031 39.9835 171.929 39.8 171.841 39.5596C171.638 38.9945 171.609 38.1319 171.653 37.1602C171.664 36.9344 171.489 36.7427 171.262 36.7325C171.037 36.7222 170.845 36.8972 170.835 37.1231Z" fill="#DE735A"/>
<path fill-rule="evenodd" clip-rule="evenodd" d="M175.848 41.3257C175.002 41.2774 174.508 40.54 174.347 39.3907C174.037 37.1784 174.881 33.3531 174.892 32.4514C174.895 32.2255 175.08 32.0443 175.307 32.047C175.534 32.0499 175.714 32.2357 175.711 32.4618C175.7 33.3475 174.854 37.1037 175.158 39.277C175.203 39.6029 175.274 39.8892 175.387 40.1139C175.508 40.352 175.677 40.5095 175.939 40.5091C176.003 40.5091 176.066 40.5242 176.123 40.5532C176.136 40.5521 176.417 40.5222 176.691 40.0998C177.255 39.2312 177.916 36.612 178.196 31.9951C178.197 31.9674 178.205 31.9028 178.205 31.9028C178.331 32.0641 178.45 32.2698 178.574 32.5199C178.701 32.2984 178.842 32.0964 179.03 31.966C179.03 31.966 179.025 32.0521 179.022 32.0949C178.726 36.9338 177.971 39.6334 177.378 40.5461C176.992 41.1403 176.608 41.3114 176.342 41.3601C176.123 41.4001 175.953 41.3634 175.848 41.3257Z" fill="#DE735A"/>
<path fill-rule="evenodd" clip-rule="evenodd" d="M178.948 41.4826C178.666 41.4299 178.43 41.2545 178.253 40.955C178.052 40.6175 177.925 40.0844 177.869 39.4324C177.719 37.6818 178.042 34.9886 178.175 33.3924C178.212 32.9393 179.029 32.915 178.991 33.3744C178.857 34.9642 178.537 37.6281 178.685 39.3622C178.722 39.7909 178.785 40.1571 178.898 40.4209C178.956 40.5542 179.002 40.6676 179.111 40.6794C179.156 40.6844 179.199 40.6964 179.24 40.7153C179.251 40.714 179.311 40.7054 179.367 40.6687C179.476 40.5977 179.593 40.4669 179.723 40.2517C180.071 39.6749 180.867 36.7803 180.867 36.7803C180.859 37.1254 180.407 40.4386 180.342 40.7614C180.299 40.9709 180.153 41.0625 180.049 41.1644C179.746 41.4616 179.472 41.5269 179.282 41.5345C179.135 41.5405 179.02 41.5104 178.948 41.4826Z" fill="#DE735A"/>
<path fill-rule="evenodd" clip-rule="evenodd" d="M52.748 83.4354L111.775 56.7632L118.147 76.08C118.147 76.08 78.425 92.779 63.0741 95.0806C63.0741 95.0806 45.7102 96.3132 32.258 92.1318C32.258 92.1318 30.5119 91.3826 31.5422 90.519C31.5422 90.519 32.8962 89.5307 34.2677 89.3418C34.2677 89.3418 31.679 87.9577 30.672 86.7814C30.5611 86.637 30.5481 86.4402 30.6391 86.2826C30.8721 85.8871 31.5332 85.2951 33.3634 85.7336C33.3634 85.7336 32.1933 84.9098 31.5649 83.8084C31.5011 83.6931 31.5004 83.5532 31.5632 83.4373C31.8076 82.9835 32.8345 82.1265 37.1055 83.605C37.1055 83.605 35.7324 82.3447 35.2359 81.0102C35.1444 80.7634 35.1848 80.4869 35.3429 80.2765C35.5012 80.0661 35.7555 79.9506 36.0179 79.97C37.2799 80.2317 39.8678 80.9928 44.0751 83.2637C44.0751 83.2637 43.049 79.7245 47.2589 80.6632C47.2589 80.6632 49.439 81.3456 52.748 83.4354Z" fill="#A62B2A"/>
<path fill-rule="evenodd" clip-rule="evenodd" d="M43.9684 82.2612C43.9557 82.5867 43.9819 82.9156 44.0547 83.2483C44.0547 83.2483 44.1164 83.2778 44.1484 83.2927C45.1401 83.7519 46.8429 84.2012 49.3551 83.7629C50.2492 83.607 51.455 83.4822 52.5826 83.4321C52.6422 83.4295 52.7603 83.4247 52.7603 83.4247L51.5218 82.6894C51.5218 82.6894 51.4015 82.7026 51.3462 82.7067C50.5741 82.7652 49.8292 82.8487 49.2143 82.9559C46.4714 83.4344 44.8119 82.76 44.0824 82.3309C44.0414 82.3068 43.9684 82.2612 43.9684 82.2612Z" fill="#DE735A"/>
<path fill-rule="evenodd" clip-rule="evenodd" d="M37.0795 83.5918L35.5875 83.1265C35.5875 83.1265 35.6941 83.2657 35.7554 83.3414C36.6744 84.4765 38.8154 86.5138 43.4367 88.6233C43.6425 88.7171 43.8856 88.6264 43.9794 88.4207C44.0734 88.2151 43.9826 87.9719 43.7769 87.878C40.376 86.3256 38.3832 84.8324 37.2507 83.7503C37.1606 83.6643 37.0795 83.5918 37.0795 83.5918Z" fill="#DE735A"/>
<path fill-rule="evenodd" clip-rule="evenodd" d="M33.37 85.7467C32.8801 85.6295 32.356 85.53 31.8537 85.6194L31.9422 85.6919C31.9422 85.6919 36.9044 89.7106 42.1776 91.4322C42.3925 91.5024 42.6239 91.3851 42.6942 91.1702C42.7645 90.9553 42.6471 90.7239 42.4322 90.6536C38.3824 89.329 33.4901 85.8346 33.4901 85.8346L33.37 85.7467Z" fill="#DE735A"/>
<path fill-rule="evenodd" clip-rule="evenodd" d="M34.2714 89.3188C33.8956 89.3931 33.497 89.4907 33.1287 89.6326C33.1287 89.6326 33.1725 89.657 33.1961 89.6701C34.425 90.3539 38.7242 92.6741 43.4364 94.3815C43.5204 94.412 43.6884 94.4722 43.6884 94.4722L47.7155 94.8931C47.7155 94.8931 47.5376 94.8108 47.4681 94.793C42.2385 93.4608 36.6208 90.5966 34.3252 89.3563C34.2982 89.3418 34.2714 89.3188 34.2714 89.3188Z" fill="#DE735A"/>
<path fill-rule="evenodd" clip-rule="evenodd" d="M136.214 43.3388C136.214 43.3388 136.23 40.9615 136.246 38.5697C136.267 35.5264 138.711 33.0547 141.753 32.9982C145.117 32.9452 149.007 33.6988 150.222 37.1832C150.227 37.4287 148.465 38.2638 144.976 36.8006C144.976 36.8006 144.685 38.6265 141.917 40.1021C141.917 40.1021 141.327 38.7881 139.761 39.6694C139.269 39.9459 138.996 40.6167 139.568 41.9327C139.568 41.9327 139.454 42.6706 136.214 43.3388Z" fill="black"/>
<path fill-rule="evenodd" clip-rule="evenodd" d="M136.214 46.068L136.298 43.2451C136.298 43.2451 138.656 42.857 139.627 41.9986C139.627 41.9986 138.663 40.1447 139.938 39.4745C140.614 39.1195 141.613 39.3142 141.949 40.0647C141.949 40.0647 144.826 38.4006 144.953 36.7292C144.984 36.8838 149.028 38.1003 150.25 37.1978C150.084 40.3379 150.106 45.5644 148.492 47.0871C147.85 47.6936 147.076 47.9363 146.001 47.9451L146.066 50.9332C146.066 50.9332 142.912 45.0876 136.214 46.068Z" fill="#A62B2A"/>
<path fill-rule="evenodd" clip-rule="evenodd" d="M145.944 47.9516C145.944 47.9516 143.595 47.1411 142.141 46.0474C142.099 46.0085 142.033 46.0079 141.99 46.0461C141.946 46.0844 141.938 46.1492 141.972 46.1966C143.064 47.6891 144.566 48.8435 146.001 50.056L145.944 47.9516Z" fill="black"/>
<path fill-rule="evenodd" clip-rule="evenodd" d="M138.716 41.7104C138.716 41.7104 139.325 42.7341 139.77 43.141C139.899 43.2579 140.098 43.2489 140.214 43.1209C140.331 42.9929 140.322 42.7941 140.195 42.6772C139.795 42.3131 139.257 41.3914 139.257 41.3914C139.169 41.242 138.976 41.1923 138.827 41.2804C138.678 41.3684 138.627 41.5612 138.716 41.7104Z" fill="black"/>
<path fill-rule="evenodd" clip-rule="evenodd" d="M147.159 42.7854C146.817 42.799 146.383 42.9973 146.263 43.4045C146.191 43.6502 146.223 43.9959 146.532 44.4446C146.645 44.6081 146.849 44.8281 147.09 44.9658C147.279 45.0729 147.488 45.1301 147.698 45.102C147.922 45.0722 148.157 44.9495 148.363 44.6508C148.449 44.5268 148.417 44.3566 148.295 44.2708C148.17 44.1851 148 44.2161 147.914 44.3399C147.821 44.4749 147.727 44.5473 147.627 44.5608C147.504 44.5771 147.388 44.5156 147.286 44.4427C147.155 44.3501 147.047 44.2288 146.983 44.135C146.808 43.8808 146.746 43.6977 146.787 43.5585C146.836 43.3887 147.037 43.3368 147.181 43.3311C147.331 43.3251 147.448 43.1978 147.441 43.0472C147.436 42.8966 147.309 42.7794 147.159 42.7854Z" fill="#DE735A"/>
<path fill-rule="evenodd" clip-rule="evenodd" d="M148.335 44.652C148.44 44.5003 148.504 44.2608 148.489 43.9984C148.47 43.6553 148.319 43.2769 148 43.0352C147.79 42.8756 147.506 42.7716 147.131 42.7866C146.979 42.7926 146.862 42.9198 146.869 43.0704C146.874 43.221 147.001 43.3383 147.153 43.3323C147.375 43.3233 147.546 43.3756 147.67 43.4702C147.854 43.6096 147.934 43.8317 147.944 44.0296C147.951 44.1534 147.936 44.2696 147.886 44.3411C147.801 44.4651 147.831 44.6353 147.955 44.7211C148.08 44.8068 148.25 44.7758 148.335 44.652Z" fill="#DE735A"/>
</svg>
